<?xml version="1.0" encoding="UTF-8"?>
<!DOCTYPE svg PUBLIC "-//W3C//DTD SVG 1.1//EN" "http://www.w3.org/Graphics/SVG/1.1/DTD/svg11.dtd">
<svg xmlns="http://www.w3.org/2000/svg" version="1.1" width="319px" height="364px" style="shape-rendering:geometricPrecision; text-rendering:geometricPrecision; image-rendering:optimizeQuality; fill-rule:evenodd; clip-rule:evenodd" xmlns:xlink="http://www.w3.org/1999/xlink">
<g><path style="opacity:1" fill="#061b20" d="M 216.5,-0.5 C 250.5,-0.5 284.5,-0.5 318.5,-0.5C 318.5,28.5 318.5,57.5 318.5,86.5C 318.167,86.5 317.833,86.5 317.5,86.5C 286.933,68.876 256.266,51.2094 225.5,33.5C 220.167,30.1667 214.833,26.8333 209.5,23.5C 211.279,21.6565 213.612,20.9898 216.5,21.5C 216.5,14.1667 216.5,6.83333 216.5,-0.5 Z"/></g>
<g><path style="opacity:1" fill="#216072" d="M 183.5,9.5 C 184.443,15.4793 186.443,20.6459 189.5,25C 189.167,25.3333 188.833,25.6667 188.5,26C 189.833,28 191.167,30 192.5,32C 191.892,34.1841 192.559,36.1841 194.5,38C 193.892,40.1841 194.559,42.1841 196.5,44C 195.542,45.1475 195.875,46.1475 197.5,47C 195.803,47.3845 194.137,47.2178 192.5,46.5C 184.319,42.8254 176.485,38.4921 169,33.5C 168.333,22.5 168.333,11.5 169,0.5C 173.981,3.39983 178.815,6.39983 183.5,9.5 Z"/></g>
<g><path style="opacity:1" fill="#1e5969" d="M 183.5,9.5 C 191.836,13.6653 199.836,18.332 207.5,23.5C 209.729,27.7431 211.396,31.9098 212.5,36C 211.939,37.5655 212.606,38.8989 214.5,40C 213.892,42.1841 214.559,44.1841 216.5,46C 215.542,47.1475 215.875,48.1475 217.5,49C 217.167,49.3333 216.833,49.6667 216.5,50C 217.5,51.6667 218.5,53.3333 219.5,55C 219.167,55.3333 218.833,55.6667 218.5,56C 222.886,60.7286 222.219,62.2286 216.5,60.5C 208.164,56.3347 200.164,51.668 192.5,46.5C 194.137,47.2178 195.803,47.3845 197.5,47C 195.875,46.1475 195.542,45.1475 196.5,44C 194.559,42.1841 193.892,40.1841 194.5,38C 192.559,36.1841 191.892,34.1841 192.5,32C 191.167,30 189.833,28 188.5,26C 188.833,25.6667 189.167,25.3333 189.5,25C 186.443,20.6459 184.443,15.4793 183.5,9.5 Z"/></g>
<g><path style="opacity:1" fill="#071e23" d="M -0.5,-0.5 C 11.8333,-0.5 24.1667,-0.5 36.5,-0.5C 36.5,6.83333 36.5,14.1667 36.5,21.5C -0.833333,22.1667 -0.833333,22.8333 36.5,23.5C 36.5,32.8333 36.5,42.1667 36.5,51.5C -0.833333,52.1667 -0.833333,52.8333 36.5,53.5C 36.5,57.1667 36.5,60.8333 36.5,64.5C 31.5,67.8333 26.5,71.1667 21.5,74.5C 19.326,74.7497 17.6594,75.7497 16.5,77.5C 13.6689,78.0787 11.3356,79.412 9.5,81.5C 7.32604,81.7497 5.65938,82.7497 4.5,84.5C 3.5041,84.4142 2.67076,84.7476 2,85.5C 1.83333,116.333 1.66667,147.167 1.5,178C 1.50014,209.174 2.16681,240.007 3.5,270.5C 3.97306,271.906 4.97306,272.573 6.5,272.5C 6.5,272.833 6.5,273.167 6.5,273.5C 6.5,279.5 6.5,285.5 6.5,291.5C 4.16667,291.5 1.83333,291.5 -0.5,291.5C -0.5,194.167 -0.5,96.8333 -0.5,-0.5 Z"/></g>
<g><path style="opacity:1" fill="#061b20" d="M 36.5,-0.5 C 77.1667,-0.5 117.833,-0.5 158.5,-0.5C 158.5,6.83333 158.5,14.1667 158.5,21.5C 170.5,22.1667 170.5,22.8333 158.5,23.5C 158.5,32.8333 158.5,42.1667 158.5,51.5C 169.167,52.1667 169.167,52.8333 158.5,53.5C 158.5,62.8333 158.5,72.1667 158.5,81.5C 169.167,82.1667 169.167,82.8333 158.5,83.5C 158.5,88.5 158.5,93.5 158.5,98.5C 156.558,93.9443 155.892,88.9443 156.5,83.5C 155.167,83.5 153.833,83.5 152.5,83.5C 152.5,72.8333 152.5,62.1667 152.5,51.5C 153.833,51.5 155.167,51.5 156.5,51.5C 156.5,42.1667 156.5,32.8333 156.5,23.5C 155.167,23.5 153.833,23.5 152.5,23.5C 152.825,15.6484 152.492,7.98178 151.5,0.5C 150.167,0.833333 148.833,1.16667 147.5,1.5C 145.973,1.42702 144.973,2.09368 144.5,3.5C 141.669,4.0787 139.336,5.41203 137.5,7.5C 135.326,7.74973 133.659,8.74973 132.5,10.5C 127.5,12.6643 122.833,15.331 118.5,18.5C 115.669,19.0787 113.336,20.412 111.5,22.5C 109.326,22.7497 107.659,23.7497 106.5,25.5C 101.5,27.6643 96.833,30.331 92.5,33.5C 90.326,33.7497 88.6594,34.7497 87.5,36.5C 80.0035,39.7448 73.0035,43.7448 66.5,48.5C 64.326,48.7497 62.6594,49.7497 61.5,51.5C 56.4997,53.6643 51.833,56.331 47.5,59.5C 45.326,59.7497 43.6594,60.7497 42.5,62.5C 40.5,63.1667 38.5,63.8333 36.5,64.5C 36.5,60.8333 36.5,57.1667 36.5,53.5C -0.833333,52.8333 -0.833333,52.1667 36.5,51.5C 36.5,42.1667 36.5,32.8333 36.5,23.5C -0.833333,22.8333 -0.833333,22.1667 36.5,21.5C 36.5,14.1667 36.5,6.83333 36.5,-0.5 Z"/></g>
<g><path style="opacity:1" fill="#276f84" d="M 118.5,18.5 C 117.191,21.4507 114.857,22.7841 111.5,22.5C 113.336,20.412 115.669,19.0787 118.5,18.5 Z"/></g>
<g><path style="opacity:1" fill="#1f5b6c" d="M 137.5,7.5 C 136.514,9.40775 134.848,10.4077 132.5,10.5C 133.659,8.74973 135.326,7.74973 137.5,7.5 Z"/></g>
<g><path style="opacity:1" fill="#348fa9" d="M 124.5,47.5 C 123.455,48.8776 122.122,49.8776 120.5,50.5C 118.973,50.427 117.973,51.0937 117.5,52.5C 115.326,52.7497 113.659,53.7497 112.5,55.5C 108.272,57.0661 104.272,59.0661 100.5,61.5C 107.366,50.8977 113.532,39.231 119,26.5C 119.333,26.8333 119.667,27.1667 120,27.5C 120.333,25.8333 120.667,24.1667 121,22.5C 121.333,22.8333 121.667,23.1667 122,23.5C 122.36,21.5789 123.194,19.9122 124.5,18.5C 122.674,18.0798 120.674,18.0798 118.5,18.5C 122.833,15.331 127.5,12.6643 132.5,10.5C 134.848,10.4077 136.514,9.40775 137.5,7.5C 140.518,7.49351 143.184,6.49351 145.5,4.5C 145.833,5 146.167,5.5 146.5,6C 143.823,10.9405 141.657,15.4405 140,19.5C 139.667,19.1667 139.333,18.8333 139,18.5C 137.166,23.6616 134.499,28.3283 131,32.5C 130.667,34.1667 130.333,35.8333 130,37.5C 129.667,37.1667 129.333,36.8333 129,36.5C 127.197,40.082 125.697,43.7486 124.5,47.5 Z"/></g>
<g><path style="opacity:1" fill="#3187a0" d="M 151.5,0.5 C 151.5,11.5 151.5,22.5 151.5,33.5C 148.984,33.7553 146.65,34.5886 144.5,36C 141.593,37.6091 138.927,39.4424 136.5,41.5C 134.326,41.7497 132.659,42.7497 131.5,44.5C 129.326,44.7497 127.659,45.7497 126.5,47.5C 125.833,47.5 125.167,47.5 124.5,47.5C 125.697,43.7486 127.197,40.082 129,36.5C 129.333,36.8333 129.667,37.1667 130,37.5C 130.333,35.8333 130.667,34.1667 131,32.5C 134.499,28.3283 137.166,23.6616 139,18.5C 139.333,18.8333 139.667,19.1667 140,19.5C 141.657,15.4405 143.823,10.9405 146.5,6C 146.167,5.5 145.833,5 145.5,4.5C 143.184,6.49351 140.518,7.49351 137.5,7.5C 139.336,5.41203 141.669,4.0787 144.5,3.5C 146.027,3.57298 147.027,2.90632 147.5,1.5C 148.833,1.16667 150.167,0.833333 151.5,0.5 Z"/></g>
<g><path style="opacity:1" fill="#1a4e5c" d="M 147.5,1.5 C 147.027,2.90632 146.027,3.57298 144.5,3.5C 144.973,2.09368 145.973,1.42702 147.5,1.5 Z"/></g>
<g><path style="opacity:1" fill="#3795b1" d="M 100.5,61.5 C 99.5,61.8333 98.8333,62.5 98.5,63.5C 96.326,63.7497 94.6594,64.7497 93.5,66.5C 88.4997,68.6643 83.833,71.331 79.5,74.5C 77.326,74.7497 75.6594,75.7497 74.5,77.5C 69.4997,79.6643 64.833,82.331 60.5,85.5C 58.326,85.7497 56.6594,86.7497 55.5,88.5C 50.4997,90.6643 45.833,93.331 41.5,96.5C 39.326,96.7497 37.6594,97.7497 36.5,99.5C 34.368,99.5544 33.0347,100.554 32.5,102.5C 31.8333,102.5 31.1667,102.5 30.5,102.5C 29.502,130.662 29.1687,158.995 29.5,187.5C 27.7673,188.008 27.434,188.841 28.5,190C 21.4492,200.634 15.2826,212.134 10,224.5C 9.66667,224.167 9.33333,223.833 9,223.5C 7.47578,227.959 5.30911,231.959 2.5,235.5C 2.33334,185.832 2.50001,136.166 3,86.5C 3.71719,85.9558 4.21719,85.2891 4.5,84.5C 6.84769,84.4077 8.51435,83.4077 9.5,81.5C 11.3356,79.412 13.6689,78.0787 16.5,77.5C 18.8477,77.4077 20.5144,76.4077 21.5,74.5C 26.5,71.1667 31.5,67.8333 36.5,64.5C 38.5,63.8333 40.5,63.1667 42.5,62.5C 44.8477,62.4077 46.5144,61.4077 47.5,59.5C 51.833,56.331 56.4997,53.6643 61.5,51.5C 63.8477,51.4077 65.5144,50.4077 66.5,48.5C 73.0035,43.7448 80.0035,39.7448 87.5,36.5C 89.8477,36.4077 91.5144,35.4077 92.5,33.5C 96.833,30.331 101.5,27.6643 106.5,25.5C 108.848,25.4077 110.514,24.4077 111.5,22.5C 114.857,22.7841 117.191,21.4507 118.5,18.5C 120.674,18.0798 122.674,18.0798 124.5,18.5C 123.194,19.9122 122.36,21.5789 122,23.5C 121.667,23.1667 121.333,22.8333 121,22.5C 120.667,24.1667 120.333,25.8333 120,27.5C 119.667,27.1667 119.333,26.8333 119,26.5C 113.532,39.231 107.366,50.8977 100.5,61.5 Z"/></g>
<g><path style="opacity:1" fill="#205d6e" d="M 111.5,22.5 C 110.514,24.4077 108.848,25.4077 106.5,25.5C 107.659,23.7497 109.326,22.7497 111.5,22.5 Z"/></g>
<g><path style="opacity:1" fill="#1c5262" d="M 207.5,23.5 C 208.167,23.5 208.833,23.5 209.5,23.5C 214.833,26.8333 220.167,30.1667 225.5,33.5C 226.252,35.1003 227.252,36.6003 228.5,38C 227.939,39.5655 228.606,40.8989 230.5,42C 229.892,44.1841 230.559,46.1841 232.5,48C 231.892,50.1841 232.559,52.1841 234.5,54C 233.892,56.1841 234.559,58.1841 236.5,60C 235.939,61.5655 236.606,62.8989 238.5,64C 238.167,64.3333 237.833,64.6667 237.5,65C 239.191,67.8705 240.524,70.5372 241.5,73C 240.181,73.195 238.847,73.0283 237.5,72.5C 230.004,69.2552 223.004,65.2552 216.5,60.5C 222.219,62.2286 222.886,60.7286 218.5,56C 218.833,55.6667 219.167,55.3333 219.5,55C 218.5,53.3333 217.5,51.6667 216.5,50C 216.833,49.6667 217.167,49.3333 217.5,49C 215.875,48.1475 215.542,47.1475 216.5,46C 214.559,44.1841 213.892,42.1841 214.5,40C 212.606,38.8989 211.939,37.5655 212.5,36C 211.396,31.9098 209.729,27.7431 207.5,23.5 Z"/></g>
<g><path style="opacity:1" fill="#226072" d="M 92.5,33.5 C 91.5144,35.4077 89.8477,36.4077 87.5,36.5C 88.6594,34.7497 90.326,33.7497 92.5,33.5 Z"/></g>
<g><path style="opacity:1" fill="#194b59" d="M 225.5,33.5 C 256.266,51.2094 286.933,68.876 317.5,86.5C 318.163,148.176 317.496,209.509 315.5,270.5C 317.28,264.337 316.613,258.504 313.5,253C 314.061,251.434 313.394,250.101 311.5,249C 311.833,248.667 312.167,248.333 312.5,248C 310.559,246.184 309.892,244.184 310.5,242C 308.559,240.184 307.892,238.184 308.5,236C 307.167,234 305.833,232 304.5,230C 304.833,229.667 305.167,229.333 305.5,229C 304.524,226.537 303.191,223.87 301.5,221C 302.061,219.434 301.394,218.101 299.5,217C 299.833,216 300.167,215 300.5,214C 298.606,212.899 297.939,211.566 298.5,210C 296.559,208.184 295.892,206.184 296.5,204C 294.559,202.184 293.892,200.184 294.5,198C 293.15,196.282 291.983,194.448 291,192.5C 290.829,201.01 290.329,209.343 289.5,217.5C 289.833,179.161 289.5,140.828 288.5,102.5C 285.14,100.82 281.807,99.1534 278.5,97.5C 269.115,91.4699 259.449,85.8033 249.5,80.5C 245.463,77.8202 241.463,75.1535 237.5,72.5C 238.847,73.0283 240.181,73.195 241.5,73C 240.524,70.5372 239.191,67.8705 237.5,65C 237.833,64.6667 238.167,64.3333 238.5,64C 236.606,62.8989 235.939,61.5655 236.5,60C 234.559,58.1841 233.892,56.1841 234.5,54C 232.559,52.1841 231.892,50.1841 232.5,48C 230.559,46.1841 229.892,44.1841 230.5,42C 228.606,40.8989 227.939,39.5655 228.5,38C 227.252,36.6003 226.252,35.1003 225.5,33.5 Z"/></g>
<g><path style="opacity:1" fill="#164451" d="M 136.5,41.5 C 135.514,43.4077 133.848,44.4077 131.5,44.5C 132.659,42.7497 134.326,41.7497 136.5,41.5 Z"/></g>
<g><path style="opacity:1" fill="#143e4a" d="M 131.5,44.5 C 130.514,46.4077 128.848,47.4077 126.5,47.5C 127.659,45.7497 129.326,44.7497 131.5,44.5 Z"/></g>
<g><path style="opacity:1" fill="#216072" d="M 66.5,48.5 C 65.5144,50.4077 63.8477,51.4077 61.5,51.5C 62.6594,49.7497 64.326,48.7497 66.5,48.5 Z"/></g>
<g><path style="opacity:1" fill="#1c5361" d="M 120.5,50.5 C 120.027,51.9063 119.027,52.573 117.5,52.5C 117.973,51.0937 118.973,50.427 120.5,50.5 Z"/></g>
<g><path style="opacity:1" fill="#164552" d="M 117.5,52.5 C 116.514,54.4077 114.848,55.4077 112.5,55.5C 113.659,53.7497 115.326,52.7497 117.5,52.5 Z"/></g>
<g><path style="opacity:1" fill="#236577" d="M 174.5,55.5 C 179.833,58.5 185.167,61.5 190.5,64.5C 192.622,67.483 194.622,70.6497 196.5,74C 195.542,75.1475 195.875,76.1475 197.5,77C 197.167,77.3333 196.833,77.6667 196.5,78C 198.441,79.8159 199.108,81.8159 198.5,84C 199.833,86 201.167,88 202.5,90C 201.892,92.1841 202.559,94.1841 204.5,96C 203.939,97.5655 204.606,98.8989 206.5,100C 206.167,101 205.833,102 205.5,103C 204.181,103.195 202.847,103.028 201.5,102.5C 194.004,99.2552 187.004,95.2552 180.5,90.5C 182.5,90.5 184.5,90.5 186.5,90.5C 182.95,78.6134 178.95,66.9467 174.5,55.5 Z"/></g>
<g><path style="opacity:1" fill="#226274" d="M 47.5,59.5 C 46.5144,61.4077 44.8477,62.4077 42.5,62.5C 43.6594,60.7497 45.326,59.7497 47.5,59.5 Z"/></g>
<g><path style="opacity:1" fill="#164552" d="M 98.5,63.5 C 97.5144,65.4077 95.8477,66.4077 93.5,66.5C 94.6594,64.7497 96.326,63.7497 98.5,63.5 Z"/></g>
<g><path style="opacity:1" fill="#328ba4" d="M 105.5,109.5 C 104.5,109.833 103.833,110.5 103.5,111.5C 97.835,113.997 92.5016,116.997 87.5,120.5C 85.9731,120.427 84.9731,121.094 84.5,122.5C 82.847,122.66 81.5137,123.326 80.5,124.5C 79.391,124.557 78.391,124.89 77.5,125.5C 77.2693,122.215 78.6026,119.715 81.5,118C 81.1667,117.667 80.8333,117.333 80.5,117C 82.1876,114.274 83.6876,111.441 85,108.5C 85.3333,108.833 85.6667,109.167 86,109.5C 87.7224,105.138 89.3891,100.805 91,96.5C 91.3333,96.8333 91.6667,97.1667 92,97.5C 94.7389,93.4865 97.2389,88.9865 99.5,84C 97.5753,84.1349 95.5753,84.3016 93.5,84.5C 95.3356,82.412 97.6689,81.0787 100.5,80.5C 102.027,80.573 103.027,79.9063 103.5,78.5C 104.514,77.3263 105.847,76.6596 107.5,76.5C 109.848,76.4077 111.514,75.4077 112.5,73.5C 114.336,71.412 116.669,70.0787 119.5,69.5C 122.3,69.1111 124.967,68.6111 127.5,68C 122.437,76.1775 117.937,84.6775 114,93.5C 111.212,95.4121 109.879,98.0787 110,101.5C 109.667,101.167 109.333,100.833 109,100.5C 107.346,103.293 106.179,106.293 105.5,109.5 Z"/></g>
<g><path style="opacity:1" fill="#215f71" d="M 190.5,64.5 C 195.701,67.263 200.701,70.263 205.5,73.5C 207.833,79.997 210.833,86.1637 214.5,92C 214.167,92.3333 213.833,92.6667 213.5,93C 214.833,95.6667 216.167,98.3333 217.5,101C 217.167,101.333 216.833,101.667 216.5,102C 218.634,104.98 219.968,107.98 220.5,111C 220.164,112.03 219.497,112.53 218.5,112.5C 217.167,112.167 215.833,111.833 214.5,111.5C 209.992,108.747 205.659,105.747 201.5,102.5C 202.847,103.028 204.181,103.195 205.5,103C 205.833,102 206.167,101 206.5,100C 204.606,98.8989 203.939,97.5655 204.5,96C 202.559,94.1841 201.892,92.1841 202.5,90C 201.167,88 199.833,86 198.5,84C 199.108,81.8159 198.441,79.8159 196.5,78C 196.833,77.6667 197.167,77.3333 197.5,77C 195.875,76.1475 195.542,75.1475 196.5,74C 194.622,70.6497 192.622,67.483 190.5,64.5 Z"/></g>
<g><path style="opacity:1" fill="#226173" d="M 21.5,74.5 C 20.5144,76.4077 18.8477,77.4077 16.5,77.5C 17.6594,75.7497 19.326,74.7497 21.5,74.5 Z"/></g>
<g><path style="opacity:1" fill="#174753" d="M 79.5,74.5 C 78.5144,76.4077 76.8477,77.4077 74.5,77.5C 75.6594,75.7497 77.326,74.7497 79.5,74.5 Z"/></g>
<g><path style="opacity:1" fill="#061c22" d="M 158.5,-0.5 C 177.833,-0.5 197.167,-0.5 216.5,-0.5C 216.5,6.83333 216.5,14.1667 216.5,21.5C 213.612,20.9898 211.279,21.6565 209.5,23.5C 208.833,23.5 208.167,23.5 207.5,23.5C 199.836,18.332 191.836,13.6653 183.5,9.5C 178.815,6.39983 173.981,3.39983 169,0.5C 168.333,11.5 168.333,22.5 169,33.5C 176.485,38.4921 184.319,42.8254 192.5,46.5C 200.164,51.668 208.164,56.3347 216.5,60.5C 223.004,65.2552 230.004,69.2552 237.5,72.5C 241.463,75.1535 245.463,77.8202 249.5,80.5C 249.577,81.7498 250.244,82.5831 251.5,83C 250.552,83.4828 249.552,83.6495 248.5,83.5C 247.833,99.5 247.167,99.5 246.5,83.5C 238.445,83.7701 230.445,83.4368 222.5,82.5C 216.702,79.7674 211.035,76.7674 205.5,73.5C 200.701,70.263 195.701,67.263 190.5,64.5C 185.167,61.5 179.833,58.5 174.5,55.5C 173.128,54.4884 171.795,53.4884 170.5,52.5C 169.791,51.596 168.791,51.2627 167.5,51.5C 167.172,62.3464 167.506,73.0131 168.5,83.5C 172.164,86.3346 176.164,88.668 180.5,90.5C 187.004,95.2552 194.004,99.2552 201.5,102.5C 205.659,105.747 209.992,108.747 214.5,111.5C 205.833,111.5 197.167,111.5 188.5,111.5C 188.942,106.309 188.442,101.309 187,96.5C 186.501,101.489 186.334,106.489 186.5,111.5C 171.833,112.167 171.833,112.833 186.5,113.5C 186.5,122.833 186.5,132.167 186.5,141.5C 171.833,142.167 171.833,142.833 186.5,143.5C 186.174,152.017 186.507,160.35 187.5,168.5C 183.483,171.832 179.15,174.832 174.5,177.5C 169.315,173.149 164.649,168.316 160.5,163C 159.906,162.536 159.239,162.369 158.5,162.5C 158.5,158.833 158.5,155.167 158.5,151.5C 157.5,151.5 156.5,151.5 155.5,151.5C 156.659,149.623 158.326,149.123 160.5,150C 164.704,154.036 168.704,158.202 172.5,162.5C 172.56,163.043 172.893,163.376 173.5,163.5C 174.828,144.338 174.828,125.338 173.5,106.5C 168.487,103.812 163.487,101.145 158.5,98.5C 158.5,93.5 158.5,88.5 158.5,83.5C 169.167,82.8333 169.167,82.1667 158.5,81.5C 158.5,72.1667 158.5,62.8333 158.5,53.5C 169.167,52.8333 169.167,52.1667 158.5,51.5C 158.5,42.1667 158.5,32.8333 158.5,23.5C 170.5,22.8333 170.5,22.1667 158.5,21.5C 158.5,14.1667 158.5,6.83333 158.5,-0.5 Z"/></g>
<g><path style="opacity:1" fill="#256a7d" d="M 170.5,52.5 C 171.795,53.4884 173.128,54.4884 174.5,55.5C 178.95,66.9467 182.95,78.6134 186.5,90.5C 184.5,90.5 182.5,90.5 180.5,90.5C 176.164,88.668 172.164,86.3346 168.5,83.5C 167.858,72.7792 168.525,62.4459 170.5,52.5 Z"/></g>
<g><path style="opacity:1" fill="#0e313a" d="M 170.5,52.5 C 168.525,62.4459 167.858,72.7792 168.5,83.5C 167.506,73.0131 167.172,62.3464 167.5,51.5C 168.791,51.2627 169.791,51.596 170.5,52.5 Z"/></g>
<g><path style="opacity:1" fill="#061d22" d="M 151.5,0.5 C 152.492,7.98178 152.825,15.6484 152.5,23.5C 153.833,23.5 155.167,23.5 156.5,23.5C 156.5,32.8333 156.5,42.1667 156.5,51.5C 155.167,51.5 153.833,51.5 152.5,51.5C 152.5,62.1667 152.5,72.8333 152.5,83.5C 153.833,83.5 155.167,83.5 156.5,83.5C 155.892,88.9443 156.558,93.9443 158.5,98.5C 154.167,101.167 149.833,103.833 145.5,106.5C 144.503,123.325 144.17,140.325 144.5,157.5C 145.791,157.737 146.791,157.404 147.5,156.5C 149.822,154.336 152.489,152.669 155.5,151.5C 156.5,151.5 157.5,151.5 158.5,151.5C 158.5,155.167 158.5,158.833 158.5,162.5C 148.37,169.07 138.036,175.403 127.5,181.5C 126.527,179.052 126.194,176.385 126.5,173.5C 118.5,172.833 118.5,172.167 126.5,171.5C 126.5,162.167 126.5,152.833 126.5,143.5C 118.5,142.833 118.5,142.167 126.5,141.5C 126.5,132.167 126.5,122.833 126.5,113.5C 118.427,114.132 110.76,113.465 103.5,111.5C 103.833,110.5 104.5,109.833 105.5,109.5C 115.7,103.567 126.033,97.9004 136.5,92.5C 138.848,92.4077 140.514,91.4077 141.5,89.5C 144.328,87.2519 147.328,85.2519 150.5,83.5C 151.494,73.0131 151.828,62.3464 151.5,51.5C 148.911,51.461 146.911,52.461 145.5,54.5C 142.669,55.0787 140.336,56.412 138.5,58.5C 136.326,58.7497 134.659,59.7497 133.5,61.5C 128.5,63.6643 123.833,66.331 119.5,69.5C 116.669,70.0787 114.336,71.412 112.5,73.5C 110.326,73.7497 108.659,74.7497 107.5,76.5C 105.847,76.6596 104.514,77.3263 103.5,78.5C 101.973,78.427 100.973,79.0937 100.5,80.5C 97.6689,81.0787 95.3356,82.412 93.5,84.5C 90.6689,85.0787 88.3356,86.412 86.5,88.5C 84.326,88.7497 82.6594,89.7497 81.5,91.5C 78.6689,92.0787 76.3356,93.412 74.5,95.5C 71.6689,96.0787 69.3356,97.412 67.5,99.5C 65.326,99.7497 63.6594,100.75 62.5,102.5C 57.4997,104.664 52.833,107.331 48.5,110.5C 47.391,110.557 46.391,110.89 45.5,111.5C 43.1667,111.5 40.8333,111.5 38.5,111.5C 37.8333,96.8333 37.1667,96.8333 36.5,111.5C 34.8333,111.5 33.1667,111.5 31.5,111.5C 31.2641,108.391 31.5975,105.391 32.5,102.5C 33.0347,100.554 34.368,99.5544 36.5,99.5C 38.8477,99.4077 40.5144,98.4077 41.5,96.5C 45.833,93.331 50.4997,90.6643 55.5,88.5C 57.8477,88.4077 59.5144,87.4077 60.5,85.5C 64.833,82.331 69.4997,79.6643 74.5,77.5C 76.8477,77.4077 78.5144,76.4077 79.5,74.5C 83.833,71.331 88.4997,68.6643 93.5,66.5C 95.8477,66.4077 97.5144,65.4077 98.5,63.5C 98.8333,62.5 99.5,61.8333 100.5,61.5C 104.272,59.0661 108.272,57.0661 112.5,55.5C 114.848,55.4077 116.514,54.4077 117.5,52.5C 119.027,52.573 120.027,51.9063 120.5,50.5C 122.122,49.8776 123.455,48.8776 124.5,47.5C 125.167,47.5 125.833,47.5 126.5,47.5C 128.848,47.4077 130.514,46.4077 131.5,44.5C 133.848,44.4077 135.514,43.4077 136.5,41.5C 138.927,39.4424 141.593,37.6091 144.5,36C 146.65,34.5886 148.984,33.7553 151.5,33.5C 151.5,22.5 151.5,11.5 151.5,0.5 Z"/></g>
<g><path style="opacity:1" fill="#1d5565" d="M 103.5,78.5 C 103.027,79.9063 102.027,80.573 100.5,80.5C 100.973,79.0937 101.973,78.427 103.5,78.5 Z"/></g>
<g><path style="opacity:1" fill="#215e6f" d="M 112.5,73.5 C 111.514,75.4077 109.848,76.4077 107.5,76.5C 108.659,74.7497 110.326,73.7497 112.5,73.5 Z"/></g>
<g><path style="opacity:1" fill="#1f5a6a" d="M 138.5,58.5 C 137.514,60.4077 135.848,61.4077 133.5,61.5C 134.659,59.7497 136.326,58.7497 138.5,58.5 Z"/></g>
<g><path style="opacity:1" fill="#30849c" d="M 150.5,83.5 C 147.328,85.2519 144.328,87.2519 141.5,89.5C 139.326,89.7497 137.659,90.7497 136.5,92.5C 126.033,97.9004 115.7,103.567 105.5,109.5C 106.179,106.293 107.346,103.293 109,100.5C 109.333,100.833 109.667,101.167 110,101.5C 109.879,98.0787 111.212,95.4121 114,93.5C 117.937,84.6775 122.437,76.1775 127.5,68C 124.967,68.6111 122.3,69.1111 119.5,69.5C 123.833,66.331 128.5,63.6643 133.5,61.5C 135.848,61.4077 137.514,60.4077 138.5,58.5C 140.336,56.412 142.669,55.0787 145.5,54.5C 147.117,53.962 148.784,53.6287 150.5,53.5C 150.5,63.5 150.5,73.5 150.5,83.5 Z"/></g>
<g><path style="opacity:1" fill="#236578" d="M 150.5,83.5 C 150.5,73.5 150.5,63.5 150.5,53.5C 148.784,53.6287 147.117,53.962 145.5,54.5C 146.911,52.461 148.911,51.461 151.5,51.5C 151.828,62.3464 151.494,73.0131 150.5,83.5 Z"/></g>
<g><path style="opacity:1" fill="#236477" d="M 9.5,81.5 C 8.51435,83.4077 6.84769,84.4077 4.5,84.5C 5.65938,82.7497 7.32604,81.7497 9.5,81.5 Z"/></g>
<g><path style="opacity:1" fill="#3590aa" d="M 77.5,125.5 C 77.5,125.833 77.5,126.167 77.5,126.5C 75.9731,126.427 74.9731,127.094 74.5,128.5C 73.5206,131.625 73.1872,134.958 73.5,138.5C 71.4002,140.498 69.4002,142.665 67.5,145C 68.0606,146.566 67.3939,147.899 65.5,149C 66.0606,150.566 65.3939,151.899 63.5,153C 63.8333,153.333 64.1667,153.667 64.5,154C 61.8124,156.754 59.479,159.754 57.5,163C 58.0606,164.566 57.3939,165.899 55.5,167C 55.8333,167.333 56.1667,167.667 56.5,168C 54.6584,171.289 52.4918,174.789 50,178.5C 49.3333,179.167 48.6667,179.833 48,180.5C 47.8213,176.975 47.3213,173.641 46.5,170.5C 46.5,160.833 46.5,151.167 46.5,141.5C 47.3227,144.977 47.8227,148.644 48,152.5C 49.6333,149.3 51.7999,146.466 54.5,144C 53.9394,142.434 54.6061,141.101 56.5,140C 55.9394,138.434 56.6061,137.101 58.5,136C 58.1667,135.667 57.8333,135.333 57.5,135C 59.479,131.754 61.8124,128.754 64.5,126C 64.1667,125.667 63.8333,125.333 63.5,125C 66.041,122.591 67.3743,119.924 67.5,117C 72.6986,110.782 77.032,103.949 80.5,96.5C 80.1667,95.8333 79.8333,95.1667 79.5,94.5C 77.9291,95.3094 76.2624,95.6427 74.5,95.5C 76.3356,93.412 78.6689,92.0787 81.5,91.5C 83.8477,91.4077 85.5144,90.4077 86.5,88.5C 88.3356,86.412 90.6689,85.0787 93.5,84.5C 95.5753,84.3016 97.5753,84.1349 99.5,84C 97.2389,88.9865 94.7389,93.4865 92,97.5C 91.6667,97.1667 91.3333,96.8333 91,96.5C 89.3891,100.805 87.7224,105.138 86,109.5C 85.6667,109.167 85.3333,108.833 85,108.5C 83.6876,111.441 82.1876,114.274 80.5,117C 80.8333,117.333 81.1667,117.667 81.5,118C 78.6026,119.715 77.2693,122.215 77.5,125.5 Z"/></g>
<g><path style="opacity:1" fill="#164552" d="M 60.5,85.5 C 59.5144,87.4077 57.8477,88.4077 55.5,88.5C 56.6594,86.7497 58.326,85.7497 60.5,85.5 Z"/></g>
<g><path style="opacity:1" fill="#1d5767" d="M 205.5,73.5 C 211.035,76.7674 216.702,79.7674 222.5,82.5C 229.332,87.0839 236.332,91.4173 243.5,95.5C 243.484,97.6291 244.151,99.4624 245.5,101C 245.167,101.333 244.833,101.667 244.5,102C 246.5,106 248.5,110 250.5,114C 249.892,116.184 250.559,118.184 252.5,120C 251.542,121.147 251.875,122.147 253.5,123C 253.167,123.333 252.833,123.667 252.5,124C 253.833,126 255.167,128 256.5,130C 255.892,132.184 256.559,134.184 258.5,136C 258.5,137.333 258.5,138.667 258.5,140C 259.833,142 261.167,144 262.5,146C 262.167,146.333 261.833,146.667 261.5,147C 263.167,150.667 264.833,154.333 266.5,158C 265.892,160.184 266.559,162.184 268.5,164C 268.5,165.333 268.5,166.667 268.5,168C 269.749,169.98 271.082,171.813 272.5,173.5C 272.5,190.167 272.5,206.833 272.5,223.5C 271.082,221.813 269.749,219.98 268.5,218C 269.458,216.853 269.125,215.853 267.5,215C 267.833,214.667 268.167,214.333 268.5,214C 267.5,212.333 266.5,210.667 265.5,209C 266.061,207.434 265.394,206.101 263.5,205C 263.833,204 264.167,203 264.5,202C 262.368,201.082 261.701,199.749 262.5,198C 260.559,196.184 259.892,194.184 260.5,192C 258.559,190.184 257.892,188.184 258.5,186C 256.606,184.899 255.939,183.566 256.5,182C 254.875,181.147 254.542,180.147 255.5,179C 254.5,177.333 253.5,175.667 252.5,174C 253.458,172.853 253.125,171.853 251.5,171C 252.061,169.434 251.394,168.101 249.5,167C 249.833,166 250.167,165 250.5,164C 249.333,162.833 248.167,161.667 247,160.5C 246.817,163.365 246.317,166.031 245.5,168.5C 245.667,155.163 245.5,141.829 245,128.5C 244.617,127.944 244.117,127.611 243.5,127.5C 234.882,122.863 226.549,117.863 218.5,112.5C 219.497,112.53 220.164,112.03 220.5,111C 219.968,107.98 218.634,104.98 216.5,102C 216.833,101.667 217.167,101.333 217.5,101C 216.167,98.3333 214.833,95.6667 213.5,93C 213.833,92.6667 214.167,92.3333 214.5,92C 210.833,86.1637 207.833,79.997 205.5,73.5 Z"/></g>
<g><path style="opacity:1" fill="#226275" d="M 86.5,88.5 C 85.5144,90.4077 83.8477,91.4077 81.5,91.5C 82.6594,89.7497 84.326,88.7497 86.5,88.5 Z"/></g>
<g><path style="opacity:1" fill="#133c47" d="M 141.5,89.5 C 140.514,91.4077 138.848,92.4077 136.5,92.5C 137.659,90.7497 139.326,89.7497 141.5,89.5 Z"/></g>
<g><path style="opacity:1" fill="#1b5161" d="M 243.5,95.5 C 248.446,97.8026 253.113,100.469 257.5,103.5C 259.255,106.242 260.922,109.076 262.5,112C 262.167,112.333 261.833,112.667 261.5,113C 262.5,114.667 263.5,116.333 264.5,118C 263.939,119.566 264.606,120.899 266.5,122C 265.892,124.184 266.559,126.184 268.5,128C 267.892,130.184 268.559,132.184 270.5,134C 270.167,134.333 269.833,134.667 269.5,135C 270.191,136.067 270.691,137.234 271,138.5C 271.333,138.167 271.667,137.833 272,137.5C 272.5,149.495 272.667,161.495 272.5,173.5C 271.082,171.813 269.749,169.98 268.5,168C 268.5,166.667 268.5,165.333 268.5,164C 266.559,162.184 265.892,160.184 266.5,158C 264.833,154.333 263.167,150.667 261.5,147C 261.833,146.667 262.167,146.333 262.5,146C 261.167,144 259.833,142 258.5,140C 258.5,138.667 258.5,137.333 258.5,136C 256.559,134.184 255.892,132.184 256.5,130C 255.167,128 253.833,126 252.5,124C 252.833,123.667 253.167,123.333 253.5,123C 251.875,122.147 251.542,121.147 252.5,120C 250.559,118.184 249.892,116.184 250.5,114C 248.5,110 246.5,106 244.5,102C 244.833,101.667 245.167,101.333 245.5,101C 244.151,99.4624 243.484,97.6291 243.5,95.5 Z"/></g>
<g><path style="opacity:1" fill="#164450" d="M 41.5,96.5 C 40.5144,98.4077 38.8477,99.4077 36.5,99.5C 37.6594,97.7497 39.326,96.7497 41.5,96.5 Z"/></g>
<g><path style="opacity:1" fill="#3694af" d="M 46.5,141.5 C 45.9387,130.979 46.6054,120.645 48.5,110.5C 52.833,107.331 57.4997,104.664 62.5,102.5C 64.8477,102.408 66.5144,101.408 67.5,99.5C 69.3356,97.412 71.6689,96.0787 74.5,95.5C 76.2624,95.6427 77.9291,95.3094 79.5,94.5C 79.8333,95.1667 80.1667,95.8333 80.5,96.5C 77.032,103.949 72.6986,110.782 67.5,117C 67.3743,119.924 66.041,122.591 63.5,125C 63.8333,125.333 64.1667,125.667 64.5,126C 61.8124,128.754 59.479,131.754 57.5,135C 57.8333,135.333 58.1667,135.667 58.5,136C 56.6061,137.101 55.9394,138.434 56.5,140C 54.6061,141.101 53.9394,142.434 54.5,144C 51.7999,146.466 49.6333,149.3 48,152.5C 47.8227,148.644 47.3227,144.977 46.5,141.5 Z"/></g>
<g><path style="opacity:1" fill="#24677a" d="M 67.5,99.5 C 66.5144,101.408 64.8477,102.408 62.5,102.5C 63.6594,100.75 65.326,99.7497 67.5,99.5 Z"/></g>
<g><path style="opacity:1" fill="#277084" d="M 158.5,98.5 C 163.487,101.145 168.487,103.812 173.5,106.5C 173.5,108.5 173.5,110.5 173.5,112.5C 172.549,113.919 172.216,115.585 172.5,117.5C 164.062,119.026 155.729,121.026 147.5,123.5C 146.824,122.398 146.158,121.398 145.5,120.5C 145.5,115.833 145.5,111.167 145.5,106.5C 149.833,103.833 154.167,101.167 158.5,98.5 Z"/></g>
<g><path style="opacity:1" fill="#184b59" d="M 257.5,103.5 C 262.592,106.713 267.925,109.379 273.5,111.5C 273.832,155.67 273.499,199.67 272.5,243.5C 272.5,236.833 272.5,230.167 272.5,223.5C 272.5,206.833 272.5,190.167 272.5,173.5C 272.667,161.495 272.5,149.495 272,137.5C 271.667,137.833 271.333,138.167 271,138.5C 270.691,137.234 270.191,136.067 269.5,135C 269.833,134.667 270.167,134.333 270.5,134C 268.559,132.184 267.892,130.184 268.5,128C 266.559,126.184 265.892,124.184 266.5,122C 264.606,120.899 263.939,119.566 264.5,118C 263.5,116.333 262.5,114.667 261.5,113C 261.833,112.667 262.167,112.333 262.5,112C 260.922,109.076 259.255,106.242 257.5,103.5 Z"/></g>
<g><path style="opacity:1" fill="#061b20" d="M 45.5,111.5 C 44.8385,156.179 45.5052,200.513 47.5,244.5C 47.9731,245.906 48.9731,246.573 50.5,246.5C 51.5137,247.674 52.847,248.34 54.5,248.5C 54.9731,249.906 55.9731,250.573 57.5,250.5C 59.6626,252.083 61.9959,253.416 64.5,254.5C 68.6301,257.403 72.9634,260.07 77.5,262.5C 74.7131,263.477 71.7131,263.81 68.5,263.5C 68.3002,275.303 67.6335,275.303 66.5,263.5C 60.8333,263.5 55.1667,263.5 49.5,263.5C 49.1583,262.662 48.4916,262.328 47.5,262.5C 46.656,260.241 44.9893,259.241 42.5,259.5C 42.0269,258.094 41.0269,257.427 39.5,257.5C 38.8333,257.5 38.1667,257.5 37.5,257.5C 36.8333,256.833 36.1667,256.167 35.5,255.5C 35.0269,254.094 34.0269,253.427 32.5,253.5C 31.5052,206.239 31.1719,158.905 31.5,111.5C 33.1667,111.5 34.8333,111.5 36.5,111.5C 37.1667,96.8333 37.8333,96.8333 38.5,111.5C 40.8333,111.5 43.1667,111.5 45.5,111.5 Z"/></g>
<g><path style="opacity:1" fill="#061d22" d="M 103.5,111.5 C 110.76,113.465 118.427,114.132 126.5,113.5C 126.5,122.833 126.5,132.167 126.5,141.5C 118.5,142.167 118.5,142.833 126.5,143.5C 126.5,152.833 126.5,162.167 126.5,171.5C 118.5,172.167 118.5,172.833 126.5,173.5C 126.194,176.385 126.527,179.052 127.5,181.5C 121.5,185.5 115.5,189.5 109.5,193.5C 106.489,194.669 103.822,196.336 101.5,198.5C 98.4887,199.669 95.822,201.336 93.5,203.5C 92.5041,203.414 91.6708,203.748 91,204.5C 90.5026,207.146 90.3359,209.813 90.5,212.5C 90.5,213.167 90.5,213.833 90.5,214.5C 90.5,216.833 90.5,219.167 90.5,221.5C 99.4367,227.643 108.77,233.31 118.5,238.5C 119.497,231.197 119.831,223.863 119.5,216.5C 119.5,213.5 119.5,210.5 119.5,207.5C 121.698,205.902 124.031,204.569 126.5,203.5C 126.5,212.833 126.5,222.167 126.5,231.5C 118.5,232.167 118.5,232.833 126.5,233.5C 126.201,241.253 126.534,248.92 127.5,256.5C 125.282,256.386 123.282,255.72 121.5,254.5C 116.387,251.127 111.053,248.127 105.5,245.5C 98.5232,241.354 91.5232,237.354 84.5,233.5C 81.3566,231.758 78.3566,229.758 75.5,227.5C 74.5001,194.507 74.1668,161.507 74.5,128.5C 74.9731,127.094 75.9731,126.427 77.5,126.5C 79.0269,126.573 80.0269,125.906 80.5,124.5C 81.5137,123.326 82.847,122.66 84.5,122.5C 86.0269,122.573 87.0269,121.906 87.5,120.5C 92.5016,116.997 97.835,113.997 103.5,111.5 Z"/></g>
<g><path style="opacity:1" fill="#061c21" d="M 278.5,97.5 C 281.807,99.1534 285.14,100.82 288.5,102.5C 289.5,140.828 289.833,179.161 289.5,217.5C 289.5,228.833 289.5,240.167 289.5,251.5C 286.991,252.921 284.657,254.588 282.5,256.5C 281.167,256.833 279.833,257.167 278.5,257.5C 276.852,249.875 275.852,241.875 275.5,233.5C 274.037,198.147 274.37,162.814 276.5,127.5C 276.446,122.321 275.779,117.321 274.5,112.5C 275.747,107.285 277.08,102.285 278.5,97.5 Z"/></g>
<g><path style="opacity:1" fill="#226173" d="M 173.5,112.5 C 173.5,118.167 173.5,123.833 173.5,129.5C 172.596,130.209 172.263,131.209 172.5,132.5C 170.048,132.624 168.048,133.624 166.5,135.5C 160.118,137.012 153.785,138.679 147.5,140.5C 146.818,139.757 146.151,139.091 145.5,138.5C 145.5,132.5 145.5,126.5 145.5,120.5C 146.158,121.398 146.824,122.398 147.5,123.5C 155.729,121.026 164.062,119.026 172.5,117.5C 172.216,115.585 172.549,113.919 173.5,112.5 Z"/></g>
<g><path style="opacity:1" fill="#194b59" d="M 87.5,120.5 C 87.0269,121.906 86.0269,122.573 84.5,122.5C 84.9731,121.094 85.9731,120.427 87.5,120.5 Z"/></g>
<g><path style="opacity:1" fill="#1a4e5d" d="M 80.5,124.5 C 80.0269,125.906 79.0269,126.573 77.5,126.5C 77.5,126.167 77.5,125.833 77.5,125.5C 78.391,124.89 79.391,124.557 80.5,124.5 Z"/></g>
<g><path style="opacity:1" fill="#0b2830" d="M 243.5,127.5 C 244.117,127.611 244.617,127.944 245,128.5C 245.5,141.829 245.667,155.163 245.5,168.5C 245.5,188.167 245.5,207.833 245.5,227.5C 245.167,227.5 244.833,227.5 244.5,227.5C 244.819,194.123 244.486,160.79 243.5,127.5 Z"/></g>
<g><path style="opacity:1" fill="#236476" d="M 116.5,123.5 C 118.456,129.412 119.123,135.745 118.5,142.5C 109.886,144.532 101.053,146.866 92,149.5C 91.2375,145.413 91.4042,141.413 92.5,137.5C 100.164,132.332 108.164,127.665 116.5,123.5 Z"/></g>
<g><path style="opacity:1" fill="#0d2e37" d="M 145.5,106.5 C 145.5,111.167 145.5,115.833 145.5,120.5C 145.5,126.5 145.5,132.5 145.5,138.5C 145.5,141.833 145.5,145.167 145.5,148.5C 144.964,151.698 145.631,154.365 147.5,156.5C 146.791,157.404 145.791,157.737 144.5,157.5C 144.17,140.325 144.503,123.325 145.5,106.5 Z"/></g>
<g><path style="opacity:1" fill="#1d5565" d="M 173.5,129.5 C 173.5,133.167 173.5,136.833 173.5,140.5C 172.814,141.848 171.814,143.015 170.5,144C 163.167,145.833 155.833,147.667 148.5,149.5C 147.416,149.315 146.416,148.982 145.5,148.5C 145.5,145.167 145.5,141.833 145.5,138.5C 146.151,139.091 146.818,139.757 147.5,140.5C 153.785,138.679 160.118,137.012 166.5,135.5C 168.048,133.624 170.048,132.624 172.5,132.5C 172.263,131.209 172.596,130.209 173.5,129.5 Z"/></g>
<g><path style="opacity:1" fill="#338ca5" d="M 73.5,138.5 C 73.5,147.833 73.5,157.167 73.5,166.5C 72.5416,166.953 71.7083,167.619 71,168.5C 64.2327,182.381 56.7327,195.714 48.5,208.5C 47.8329,204.687 47.1663,201.021 46.5,197.5C 46.5,188.5 46.5,179.5 46.5,170.5C 47.3213,173.641 47.8213,176.975 48,180.5C 48.6667,179.833 49.3333,179.167 50,178.5C 52.4918,174.789 54.6584,171.289 56.5,168C 56.1667,167.667 55.8333,167.333 55.5,167C 57.3939,165.899 58.0606,164.566 57.5,163C 59.479,159.754 61.8124,156.754 64.5,154C 64.1667,153.667 63.8333,153.333 63.5,153C 65.3939,151.899 66.0606,150.566 65.5,149C 67.3939,147.899 68.0606,146.566 67.5,145C 69.4002,142.665 71.4002,140.498 73.5,138.5 Z"/></g>
<g><path style="opacity:1" fill="#0a272d" d="M 30.5,102.5 C 31.1667,102.5 31.8333,102.5 32.5,102.5C 31.5975,105.391 31.2641,108.391 31.5,111.5C 31.1719,158.905 31.5052,206.239 32.5,253.5C 30.5045,203.511 29.8379,153.178 30.5,102.5 Z"/></g>
<g><path style="opacity:1" fill="#194c5a" d="M 173.5,140.5 C 173.825,148.019 173.492,155.352 172.5,162.5C 168.704,158.202 164.704,154.036 160.5,150C 158.326,149.123 156.659,149.623 155.5,151.5C 152.489,152.669 149.822,154.336 147.5,156.5C 145.631,154.365 144.964,151.698 145.5,148.5C 146.416,148.982 147.416,149.315 148.5,149.5C 155.833,147.667 163.167,145.833 170.5,144C 171.814,143.015 172.814,141.848 173.5,140.5 Z"/></g>
<g><path style="opacity:1" fill="#133b46" d="M 173.5,106.5 C 174.828,125.338 174.828,144.338 173.5,163.5C 172.893,163.376 172.56,163.043 172.5,162.5C 173.492,155.352 173.825,148.019 173.5,140.5C 173.5,136.833 173.5,133.167 173.5,129.5C 173.5,123.833 173.5,118.167 173.5,112.5C 173.5,110.5 173.5,108.5 173.5,106.5 Z"/></g>
<g><path style="opacity:1" fill="#3693af" d="M 230.5,150.5 C 230.5,155.5 230.5,160.5 230.5,165.5C 229.833,168.833 229.167,172.167 228.5,175.5C 227.974,173.77 226.974,172.436 225.5,171.5C 223.757,164.448 220.757,163.782 216.5,169.5C 215.833,169.5 215.5,169.833 215.5,170.5C 201.691,179.241 188.024,188.241 174.5,197.5C 166.5,197.5 158.5,197.5 150.5,197.5C 148.85,195.349 147.017,193.349 145,191.5C 142.568,192.966 140.068,194.299 137.5,195.5C 127.828,195.666 118.161,195.5 108.5,195C 109.056,194.617 109.389,194.117 109.5,193.5C 115.5,189.5 121.5,185.5 127.5,181.5C 138.036,175.403 148.37,169.07 158.5,162.5C 159.239,162.369 159.906,162.536 160.5,163C 164.649,168.316 169.315,173.149 174.5,177.5C 179.15,174.832 183.483,171.832 187.5,168.5C 195.098,164.085 202.598,159.418 210,154.5C 210.667,153.5 210.667,152.5 210,151.5C 208.293,149.963 206.793,148.296 205.5,146.5C 213.65,145.507 221.983,145.174 230.5,145.5C 230.5,147.167 230.5,148.833 230.5,150.5 Z"/></g>
<g><path style="opacity:1" fill="#1e5868" d="M 92.5,137.5 C 91.4042,141.413 91.2375,145.413 92,149.5C 101.053,146.866 109.886,144.532 118.5,142.5C 118.824,146.555 118.491,150.555 117.5,154.5C 108.667,156.852 100.167,159.185 92,161.5C 91.8019,159.618 91.3019,157.952 90.5,156.5C 89.8771,149.745 90.5437,143.412 92.5,137.5 Z"/></g>
<g><path style="opacity:1" fill="#194c5a" d="M 116.5,123.5 C 117.209,122.596 118.209,122.263 119.5,122.5C 119.5,140.5 119.5,158.5 119.5,176.5C 109.939,181.285 100.606,186.618 91.5,192.5C 90.501,180.518 90.1677,168.518 90.5,156.5C 91.3019,157.952 91.8019,159.618 92,161.5C 100.167,159.185 108.667,156.852 117.5,154.5C 118.491,150.555 118.824,146.555 118.5,142.5C 119.123,135.745 118.456,129.412 116.5,123.5 Z"/></g>
<g><path style="opacity:1" fill="#0a282f" d="M 225.5,171.5 C 222.248,171.71 219.248,171.044 216.5,169.5C 220.757,163.782 223.757,164.448 225.5,171.5 Z"/></g>
<g><path style="opacity:1" fill="#061c21" d="M 214.5,111.5 C 215.833,111.833 217.167,112.167 218.5,112.5C 226.549,117.863 234.882,122.863 243.5,127.5C 244.486,160.79 244.819,194.123 244.5,227.5C 240.136,229.344 236.136,231.677 232.5,234.5C 227.833,236.833 223.167,239.167 218.5,241.5C 216.631,239.365 215.964,236.698 216.5,233.5C 214.517,233.843 213.183,233.176 212.5,231.5C 214.336,229.412 216.669,228.079 219.5,227.5C 221.027,227.573 222.027,226.906 222.5,225.5C 223.937,224.275 225.604,223.275 227.5,222.5C 228.666,211.181 228.832,199.848 228,188.5C 226.167,186 224.333,183.5 222.5,181C 221.072,180.421 219.738,180.588 218.5,181.5C 216.631,179.365 215.964,176.698 216.5,173.5C 215.448,173.649 214.448,173.483 213.5,173C 214.381,172.292 215.047,171.458 215.5,170.5C 215.5,169.833 215.833,169.5 216.5,169.5C 219.248,171.044 222.248,171.71 225.5,171.5C 226.974,172.436 227.974,173.77 228.5,175.5C 228.56,176.043 228.893,176.376 229.5,176.5C 230.489,172.893 230.823,169.226 230.5,165.5C 230.5,160.5 230.5,155.5 230.5,150.5C 231.461,148.735 231.795,146.735 231.5,144.5C 222.348,143.506 213.015,143.173 203.5,143.5C 203.263,144.791 203.596,145.791 204.5,146.5C 204.833,146.5 205.167,146.5 205.5,146.5C 206.793,148.296 208.293,149.963 210,151.5C 210.667,152.5 210.667,153.5 210,154.5C 202.598,159.418 195.098,164.085 187.5,168.5C 186.507,160.35 186.174,152.017 186.5,143.5C 171.833,142.833 171.833,142.167 186.5,141.5C 186.5,132.167 186.5,122.833 186.5,113.5C 171.833,112.833 171.833,112.167 186.5,111.5C 186.334,106.489 186.501,101.489 187,96.5C 188.442,101.309 188.942,106.309 188.5,111.5C 197.167,111.5 205.833,111.5 214.5,111.5 Z"/></g>
<g><path style="opacity:1" fill="#246679" d="M 231.5,144.5 C 231.795,146.735 231.461,148.735 230.5,150.5C 230.5,148.833 230.5,147.167 230.5,145.5C 221.983,145.174 213.65,145.507 205.5,146.5C 205.167,146.5 204.833,146.5 204.5,146.5C 213.105,144.529 222.105,143.862 231.5,144.5 Z"/></g>
<g><path style="opacity:1" fill="#0d2f37" d="M 231.5,144.5 C 222.105,143.862 213.105,144.529 204.5,146.5C 203.596,145.791 203.263,144.791 203.5,143.5C 213.015,143.173 222.348,143.506 231.5,144.5 Z"/></g>
<g><path style="opacity:1" fill="#1e5868" d="M 230.5,165.5 C 230.823,169.226 230.489,172.893 229.5,176.5C 228.893,176.376 228.56,176.043 228.5,175.5C 229.167,172.167 229.833,168.833 230.5,165.5 Z"/></g>
<g><path style="opacity:1" fill="#30869e" d="M 73.5,166.5 C 73.5,178.167 73.5,189.833 73.5,201.5C 71.4322,204.431 69.0989,207.264 66.5,210C 67.0606,211.566 66.3939,212.899 64.5,214C 65.0606,215.566 64.3939,216.899 62.5,218C 62.8333,218.333 63.1667,218.667 63.5,219C 57.7873,225.726 53.2873,233.226 50,241.5C 48.9887,242.337 47.8221,242.67 46.5,242.5C 46.5,227.5 46.5,212.5 46.5,197.5C 47.1663,201.021 47.8329,204.687 48.5,208.5C 56.7327,195.714 64.2327,182.381 71,168.5C 71.7083,167.619 72.5416,166.953 73.5,166.5 Z"/></g>
<g><path style="opacity:1" fill="#3794b0" d="M 222.5,225.5 C 220.973,225.427 219.973,226.094 219.5,227.5C 216.669,228.079 214.336,229.412 212.5,231.5C 208.827,233 205.494,235 202.5,237.5C 200.518,223.873 199.851,209.873 200.5,195.5C 206.5,190.833 212.5,186.167 218.5,181.5C 219.738,180.588 221.072,180.421 222.5,181C 224.333,183.5 226.167,186 228,188.5C 228.832,199.848 228.666,211.181 227.5,222.5C 225.604,223.275 223.937,224.275 222.5,225.5 Z"/></g>
<g><path style="opacity:1" fill="#297388" d="M 48.5,110.5 C 46.6054,120.645 45.9387,130.979 46.5,141.5C 46.5,151.167 46.5,160.833 46.5,170.5C 46.5,179.5 46.5,188.5 46.5,197.5C 46.5,212.5 46.5,227.5 46.5,242.5C 46.8333,243.167 47.1667,243.833 47.5,244.5C 45.5052,200.513 44.8385,156.179 45.5,111.5C 46.391,110.89 47.391,110.557 48.5,110.5 Z"/></g>
<g><path style="opacity:1" fill="#215f71" d="M 272.5,223.5 C 272.5,230.167 272.5,236.833 272.5,243.5C 267.663,246.419 262.663,249.086 257.5,251.5C 257.937,249.926 258.937,248.759 260.5,248C 258.559,246.184 257.892,244.184 258.5,242C 256.559,240.184 255.892,238.184 256.5,236C 254.559,234.184 253.892,232.184 254.5,230C 252.606,228.899 251.939,227.566 252.5,226C 250.875,225.147 250.542,224.147 251.5,223C 250.5,221.333 249.5,219.667 248.5,218C 249.654,217.086 249.487,216.253 248,215.5C 247.667,215.833 247.333,216.167 247,216.5C 246.823,220.356 246.323,224.023 245.5,227.5C 245.5,207.833 245.5,188.167 245.5,168.5C 246.317,166.031 246.817,163.365 247,160.5C 248.167,161.667 249.333,162.833 250.5,164C 250.167,165 249.833,166 249.5,167C 251.394,168.101 252.061,169.434 251.5,171C 253.125,171.853 253.458,172.853 252.5,174C 253.5,175.667 254.5,177.333 255.5,179C 254.542,180.147 254.875,181.147 256.5,182C 255.939,183.566 256.606,184.899 258.5,186C 257.892,188.184 258.559,190.184 260.5,192C 259.892,194.184 260.559,196.184 262.5,198C 261.701,199.749 262.368,201.082 264.5,202C 264.167,203 263.833,204 263.5,205C 265.394,206.101 266.061,207.434 265.5,209C 266.5,210.667 267.5,212.333 268.5,214C 268.167,214.333 267.833,214.667 267.5,215C 269.125,215.853 269.458,216.853 268.5,218C 269.749,219.98 271.082,221.813 272.5,223.5 Z"/></g>
<g><path style="opacity:1" fill="#3591ab" d="M 29.5,187.5 C 29.5,196.833 29.5,206.167 29.5,215.5C 20.8576,231.447 12.1909,247.447 3.5,263.5C 2.50169,254.19 2.16836,244.857 2.5,235.5C 5.30911,231.959 7.47578,227.959 9,223.5C 9.33333,223.833 9.66667,224.167 10,224.5C 15.2826,212.134 21.4492,200.634 28.5,190C 27.434,188.841 27.7673,188.008 29.5,187.5 Z"/></g>
<g><path style="opacity:1" fill="#194b59" d="M 200.5,195.5 C 199.851,209.873 200.518,223.873 202.5,237.5C 201.791,238.404 200.791,238.737 199.5,238.5C 199.171,223.99 199.504,209.657 200.5,195.5 Z"/></g>
<g><path style="opacity:1" fill="#3289a2" d="M 109.5,193.5 C 109.389,194.117 109.056,194.617 108.5,195C 118.161,195.5 127.828,195.666 137.5,195.5C 134.709,197.735 131.709,199.735 128.5,201.5C 118.828,201.666 109.161,201.5 99.5,201C 100.381,200.292 101.047,199.458 101.5,198.5C 103.822,196.336 106.489,194.669 109.5,193.5 Z"/></g>
<g><path style="opacity:1" fill="#2e8098" d="M 73.5,201.5 C 73.6664,210.506 73.4998,219.506 73,228.5C 68.4507,234.985 64.9507,241.985 62.5,249.5C 60.8333,249.5 59.1667,249.5 57.5,249.5C 56.609,248.89 55.609,248.557 54.5,248.5C 52.847,248.34 51.5137,247.674 50.5,246.5C 50.0269,245.094 49.0269,244.427 47.5,244.5C 47.1667,243.833 46.8333,243.167 46.5,242.5C 47.8221,242.67 48.9887,242.337 50,241.5C 53.2873,233.226 57.7873,225.726 63.5,219C 63.1667,218.667 62.8333,218.333 62.5,218C 64.3939,216.899 65.0606,215.566 64.5,214C 66.3939,212.899 67.0606,211.566 66.5,210C 69.0989,207.264 71.4322,204.431 73.5,201.5 Z"/></g>
<g><path style="opacity:1" fill="#061c22" d="M 215.5,170.5 C 215.047,171.458 214.381,172.292 213.5,173C 214.448,173.483 215.448,173.649 216.5,173.5C 215.964,176.698 216.631,179.365 218.5,181.5C 212.5,186.167 206.5,190.833 200.5,195.5C 199.504,209.657 199.171,223.99 199.5,238.5C 200.791,238.737 201.791,238.404 202.5,237.5C 205.494,235 208.827,233 212.5,231.5C 213.183,233.176 214.517,233.843 216.5,233.5C 215.964,236.698 216.631,239.365 218.5,241.5C 218.167,242.167 217.833,242.833 217.5,243.5C 212.5,245.664 207.833,248.331 203.5,251.5C 194.499,255.998 185.832,260.998 177.5,266.5C 172.976,268.043 168.976,270.377 165.5,273.5C 163.847,273.66 162.514,274.326 161.5,275.5C 155.563,272.868 149.563,270.202 143.5,267.5C 140.284,264.396 136.618,262.063 132.5,260.5C 129.937,260.269 128.27,258.935 127.5,256.5C 126.534,248.92 126.201,241.253 126.5,233.5C 118.5,232.833 118.5,232.167 126.5,231.5C 126.5,222.167 126.5,212.833 126.5,203.5C 127.167,202.833 127.833,202.167 128.5,201.5C 131.709,199.735 134.709,197.735 137.5,195.5C 140.068,194.299 142.568,192.966 145,191.5C 147.017,193.349 148.85,195.349 150.5,197.5C 151.5,199.167 152.833,200.5 154.5,201.5C 155.728,204.075 157.395,206.408 159.5,208.5C 162.75,206.388 165.75,204.055 168.5,201.5C 170.795,200.525 172.795,199.192 174.5,197.5C 188.024,188.241 201.691,179.241 215.5,170.5 Z"/></g>
<g><path style="opacity:1" fill="#2c7990" d="M 154.5,201.5 C 159.167,201.5 163.833,201.5 168.5,201.5C 165.75,204.055 162.75,206.388 159.5,208.5C 157.395,206.408 155.728,204.075 154.5,201.5 Z"/></g>
<g><path style="opacity:1" fill="#31869f" d="M 150.5,197.5 C 158.5,197.5 166.5,197.5 174.5,197.5C 172.795,199.192 170.795,200.525 168.5,201.5C 163.833,201.5 159.167,201.5 154.5,201.5C 152.833,200.5 151.5,199.167 150.5,197.5 Z"/></g>
<g><path style="opacity:1" fill="#2c798f" d="M 101.5,198.5 C 101.047,199.458 100.381,200.292 99.5,201C 109.161,201.5 118.828,201.666 128.5,201.5C 127.833,202.167 127.167,202.833 126.5,203.5C 124.031,204.569 121.698,205.902 119.5,207.5C 119.167,207.5 118.833,207.5 118.5,207.5C 109.475,207.832 100.475,207.498 91.5,206.5C 92.1925,205.482 92.8592,204.482 93.5,203.5C 95.822,201.336 98.4887,199.669 101.5,198.5 Z"/></g>
<g><path style="opacity:1" fill="#123943" d="M 146.5,206.5 C 145.506,215.652 145.173,224.985 145.5,234.5C 145.5,237.5 145.5,240.5 145.5,243.5C 145.5,246.833 145.5,250.167 145.5,253.5C 144.173,237.662 144.173,221.662 145.5,205.5C 146.107,205.624 146.44,205.957 146.5,206.5 Z"/></g>
<g><path style="opacity:1" fill="#276d81" d="M 93.5,203.5 C 92.8592,204.482 92.1925,205.482 91.5,206.5C 100.475,207.498 109.475,207.832 118.5,207.5C 118.5,209.167 118.5,210.833 118.5,212.5C 109.167,212.5 99.8333,212.5 90.5,212.5C 90.3359,209.813 90.5026,207.146 91,204.5C 91.6708,203.748 92.5041,203.414 93.5,203.5 Z"/></g>
<g><path style="opacity:1" fill="#3693af" d="M 146.5,206.5 C 150.262,211.691 154.262,216.691 158.5,221.5C 162.722,218.56 167.055,215.894 171.5,213.5C 173.461,220.087 174.128,227.087 173.5,234.5C 172.596,235.209 172.263,236.209 172.5,237.5C 163.833,237.5 155.167,237.5 146.5,237.5C 146.737,236.209 146.404,235.209 145.5,234.5C 145.173,224.985 145.506,215.652 146.5,206.5 Z"/></g>
<g><path style="opacity:1" fill="#1b5160" d="M 315.5,270.5 C 313.313,271.758 310.98,272.758 308.5,273.5C 306.271,269.257 304.604,265.09 303.5,261C 303.833,260.667 304.167,260.333 304.5,260C 302.559,258.184 301.892,256.184 302.5,254C 300.606,252.899 299.939,251.566 300.5,250C 298.875,249.147 298.542,248.147 299.5,247C 297.875,246.147 297.542,245.147 298.5,244C 296.559,242.184 295.892,240.184 296.5,238C 295.5,237 294.5,236 293.5,235C 293.833,234 294.167,233 294.5,232C 293.333,230.833 292.167,229.667 291,228.5C 290.829,236.344 290.329,244.011 289.5,251.5C 289.5,240.167 289.5,228.833 289.5,217.5C 290.329,209.343 290.829,201.01 291,192.5C 291.983,194.448 293.15,196.282 294.5,198C 293.892,200.184 294.559,202.184 296.5,204C 295.892,206.184 296.559,208.184 298.5,210C 297.939,211.566 298.606,212.899 300.5,214C 300.167,215 299.833,216 299.5,217C 301.394,218.101 302.061,219.434 301.5,221C 303.191,223.87 304.524,226.537 305.5,229C 305.167,229.333 304.833,229.667 304.5,230C 305.833,232 307.167,234 308.5,236C 307.892,238.184 308.559,240.184 310.5,242C 309.892,244.184 310.559,246.184 312.5,248C 312.167,248.333 311.833,248.667 311.5,249C 313.394,250.101 314.061,251.434 313.5,253C 316.613,258.504 317.28,264.337 315.5,270.5 Z"/></g>
<g><path style="opacity:1" fill="#215f71" d="M 173.5,253.5 C 173.5,250.167 173.5,246.833 173.5,243.5C 173.5,240.5 173.5,237.5 173.5,234.5C 174.128,227.087 173.461,220.087 171.5,213.5C 171.811,212.522 172.478,211.855 173.5,211.5C 174.826,225.661 174.826,239.661 173.5,253.5 Z"/></g>
<g><path style="opacity:1" fill="#226173" d="M 118.5,207.5 C 118.833,207.5 119.167,207.5 119.5,207.5C 119.5,210.5 119.5,213.5 119.5,216.5C 118.833,216.5 118.5,216.833 118.5,217.5C 109.5,217.5 100.5,217.5 91.5,217.5C 91.7373,216.209 91.404,215.209 90.5,214.5C 90.5,213.833 90.5,213.167 90.5,212.5C 99.8333,212.5 109.167,212.5 118.5,212.5C 118.5,210.833 118.5,209.167 118.5,207.5 Z"/></g>
<g><path style="opacity:1" fill="#338ba4" d="M 4.5,84.5 C 4.21719,85.2891 3.71719,85.9558 3,86.5C 2.50001,136.166 2.33334,185.832 2.5,235.5C 2.16836,244.857 2.50169,254.19 3.5,263.5C 12.1909,247.447 20.8576,231.447 29.5,215.5C 29.9288,226.245 29.4288,236.912 28,247.5C 22.8488,255.106 18.3488,263.106 14.5,271.5C 13.6721,272.415 12.6721,273.081 11.5,273.5C 9.92908,272.691 8.26241,272.357 6.5,272.5C 6.02694,271.094 5.02694,270.427 3.5,270.5C 2.16681,240.007 1.50014,209.174 1.5,178C 1.66667,147.167 1.83333,116.333 2,85.5C 2.67076,84.7476 3.5041,84.4142 4.5,84.5 Z"/></g>
<g><path style="opacity:1" fill="#236577" d="M 257.5,251.5 C 254.506,254 251.173,256 247.5,257.5C 247.539,256.417 247.873,255.417 248.5,254.5C 245.852,249.062 243.686,243.396 242,237.5C 239.252,235.269 236.085,234.269 232.5,234.5C 236.136,231.677 240.136,229.344 244.5,227.5C 244.833,227.5 245.167,227.5 245.5,227.5C 246.323,224.023 246.823,220.356 247,216.5C 247.333,216.167 247.667,215.833 248,215.5C 249.487,216.253 249.654,217.086 248.5,218C 249.5,219.667 250.5,221.333 251.5,223C 250.542,224.147 250.875,225.147 252.5,226C 251.939,227.566 252.606,228.899 254.5,230C 253.892,232.184 254.559,234.184 256.5,236C 255.892,238.184 256.559,240.184 258.5,242C 257.892,244.184 258.559,246.184 260.5,248C 258.937,248.759 257.937,249.926 257.5,251.5 Z"/></g>
<g><path style="opacity:1" fill="#1d5565" d="M 90.5,214.5 C 91.404,215.209 91.7373,216.209 91.5,217.5C 100.5,217.5 109.5,217.5 118.5,217.5C 118.5,219.167 118.5,220.833 118.5,222.5C 109.114,222.78 99.7803,222.447 90.5,221.5C 90.5,219.167 90.5,216.833 90.5,214.5 Z"/></g>
<g><path style="opacity:1" fill="#174855" d="M 119.5,216.5 C 119.831,223.863 119.497,231.197 118.5,238.5C 108.77,233.31 99.4367,227.643 90.5,221.5C 99.7803,222.447 109.114,222.78 118.5,222.5C 118.5,220.833 118.5,219.167 118.5,217.5C 118.5,216.833 118.833,216.5 119.5,216.5 Z"/></g>
<g><path style="opacity:1" fill="#194c5a" d="M 222.5,225.5 C 222.027,226.906 221.027,227.573 219.5,227.5C 219.973,226.094 220.973,225.427 222.5,225.5 Z"/></g>
<g><path style="opacity:1" fill="#1d5565" d="M 308.5,273.5 C 304.37,276.403 300.037,279.07 295.5,281.5C 295.335,279.173 294.669,277.007 293.5,275C 293.833,274.667 294.167,274.333 294.5,274C 292.833,270.333 291.167,266.667 289.5,263C 289.833,262.667 290.167,262.333 290.5,262C 289.167,260 287.833,258 286.5,256C 285.181,255.805 283.847,255.972 282.5,256.5C 284.657,254.588 286.991,252.921 289.5,251.5C 290.329,244.011 290.829,236.344 291,228.5C 292.167,229.667 293.333,230.833 294.5,232C 294.167,233 293.833,234 293.5,235C 294.5,236 295.5,237 296.5,238C 295.892,240.184 296.559,242.184 298.5,244C 297.542,245.147 297.875,246.147 299.5,247C 298.542,248.147 298.875,249.147 300.5,250C 299.939,251.566 300.606,252.899 302.5,254C 301.892,256.184 302.559,258.184 304.5,260C 304.167,260.333 303.833,260.667 303.5,261C 304.604,265.09 306.271,269.257 308.5,273.5 Z"/></g>
<g><path style="opacity:1" fill="#2a768c" d="M 74.5,128.5 C 74.1668,161.507 74.5001,194.507 75.5,227.5C 78.3566,229.758 81.3566,231.758 84.5,233.5C 84.33,234.822 84.6634,235.989 85.5,237C 83.1463,239.368 81.1463,242.035 79.5,245C 79.8333,245.333 80.1667,245.667 80.5,246C 79.3333,247.167 78.1667,248.333 77,249.5C 76.8176,252.822 75.9842,255.156 74.5,256.5C 71.0678,256.243 67.7345,255.576 64.5,254.5C 61.9959,253.416 59.6626,252.083 57.5,250.5C 57.5,250.167 57.5,249.833 57.5,249.5C 59.1667,249.5 60.8333,249.5 62.5,249.5C 64.9507,241.985 68.4507,234.985 73,228.5C 73.4998,219.506 73.6664,210.506 73.5,201.5C 73.5,189.833 73.5,178.167 73.5,166.5C 73.5,157.167 73.5,147.833 73.5,138.5C 73.1872,134.958 73.5206,131.625 74.5,128.5 Z"/></g>
<g><path style="opacity:1" fill="#266b7f" d="M 232.5,234.5 C 236.085,234.269 239.252,235.269 242,237.5C 243.686,243.396 245.852,249.062 248.5,254.5C 247.873,255.417 247.539,256.417 247.5,257.5C 242.701,260.737 237.701,263.737 232.5,266.5C 232.395,262.681 231.562,259.014 230,255.5C 228.356,251.563 226.523,247.73 224.5,244C 225.604,242.869 225.271,242.035 223.5,241.5C 221.55,242.372 219.55,243.039 217.5,243.5C 217.833,242.833 218.167,242.167 218.5,241.5C 223.167,239.167 227.833,236.833 232.5,234.5 Z"/></g>
<g><path style="opacity:1" fill="#297388" d="M 84.5,233.5 C 91.5232,237.354 98.5232,241.354 105.5,245.5C 105.414,246.496 105.748,247.329 106.5,248C 101.857,253.2 98.3567,258.7 96,264.5C 94.0212,268.214 91.1879,269.214 87.5,267.5C 83.8832,266.358 80.5498,264.692 77.5,262.5C 72.9634,260.07 68.6301,257.403 64.5,254.5C 67.7345,255.576 71.0678,256.243 74.5,256.5C 75.9842,255.156 76.8176,252.822 77,249.5C 78.1667,248.333 79.3333,247.167 80.5,246C 80.1667,245.667 79.8333,245.333 79.5,245C 81.1463,242.035 83.1463,239.368 85.5,237C 84.6634,235.989 84.33,234.822 84.5,233.5 Z"/></g>
<g><path style="opacity:1" fill="#3188a1" d="M 145.5,234.5 C 146.404,235.209 146.737,236.209 146.5,237.5C 155.167,237.5 163.833,237.5 172.5,237.5C 172.263,236.209 172.596,235.209 173.5,234.5C 173.5,237.5 173.5,240.5 173.5,243.5C 169.083,244.773 164.417,245.44 159.5,245.5C 154.583,245.44 149.917,244.773 145.5,243.5C 145.5,240.5 145.5,237.5 145.5,234.5 Z"/></g>
<g><path style="opacity:1" fill="#184a57" d="M 47.5,244.5 C 49.0269,244.427 50.0269,245.094 50.5,246.5C 48.9731,246.573 47.9731,245.906 47.5,244.5 Z"/></g>
<g><path style="opacity:1" fill="#297489" d="M 232.5,266.5 C 226.738,270.262 220.738,273.596 214.5,276.5C 213.561,268.656 210.895,261.489 206.5,255C 207.361,252.679 206.361,251.513 203.5,251.5C 207.833,248.331 212.5,245.664 217.5,243.5C 219.55,243.039 221.55,242.372 223.5,241.5C 225.271,242.035 225.604,242.869 224.5,244C 226.523,247.73 228.356,251.563 230,255.5C 231.562,259.014 232.395,262.681 232.5,266.5 Z"/></g>
<g><path style="opacity:1" fill="#194b58" d="M 54.5,248.5 C 55.609,248.557 56.609,248.89 57.5,249.5C 57.5,249.833 57.5,250.167 57.5,250.5C 55.9731,250.573 54.9731,249.906 54.5,248.5 Z"/></g>
<g><path style="opacity:1" fill="#256b7e" d="M 105.5,245.5 C 111.053,248.127 116.387,251.127 121.5,254.5C 122.987,257.212 122.321,259.379 119.5,261C 120.061,262.566 119.394,263.899 117.5,265C 117.833,265.333 118.167,265.667 118.5,266C 116.658,269.289 114.492,272.789 112,276.5C 108.932,277.307 105.765,277.307 102.5,276.5C 96.9946,274.251 91.9946,271.251 87.5,267.5C 91.1879,269.214 94.0212,268.214 96,264.5C 98.3567,258.7 101.857,253.2 106.5,248C 105.748,247.329 105.414,246.496 105.5,245.5 Z"/></g>
<g><path style="opacity:1" fill="#2d7d94" d="M 145.5,243.5 C 149.917,244.773 154.583,245.44 159.5,245.5C 164.417,245.44 169.083,244.773 173.5,243.5C 173.5,246.833 173.5,250.167 173.5,253.5C 164.167,253.5 154.833,253.5 145.5,253.5C 145.5,250.167 145.5,246.833 145.5,243.5 Z"/></g>
<g><path style="opacity:1" fill="#2e7f96" d="M 30.5,102.5 C 29.8379,153.178 30.5045,203.511 32.5,253.5C 32.9731,254.906 33.9731,255.573 35.5,255.5C 36.1667,256.167 36.8333,256.833 37.5,257.5C 36.5456,261.323 34.7123,264.657 32,267.5C 30.5488,272.61 27.8821,276.943 24,280.5C 22.2341,279.767 20.4008,279.433 18.5,279.5C 17.656,277.241 15.9893,276.241 13.5,276.5C 13.0269,275.094 12.0269,274.427 10.5,274.5C 9.16667,274.167 7.83333,273.833 6.5,273.5C 6.5,273.167 6.5,272.833 6.5,272.5C 8.26241,272.357 9.92908,272.691 11.5,273.5C 12.6721,273.081 13.6721,272.415 14.5,271.5C 18.3488,263.106 22.8488,255.106 28,247.5C 29.4288,236.912 29.9288,226.245 29.5,215.5C 29.5,206.167 29.5,196.833 29.5,187.5C 29.1687,158.995 29.502,130.662 30.5,102.5 Z"/></g>
<g><path style="opacity:1" fill="#1b4f5e" d="M 32.5,253.5 C 34.0269,253.427 35.0269,254.094 35.5,255.5C 33.9731,255.573 32.9731,254.906 32.5,253.5 Z"/></g>
<g><path style="opacity:1" fill="#287186" d="M 145.5,253.5 C 154.833,253.5 164.167,253.5 173.5,253.5C 168.891,256.142 164.224,258.809 159.5,261.5C 154.156,259.834 149.489,257.167 145.5,253.5 Z"/></g>
<g><path style="opacity:1" fill="#236477" d="M 121.5,254.5 C 123.282,255.72 125.282,256.386 127.5,256.5C 128.27,258.935 129.937,260.269 132.5,260.5C 133.141,261.482 133.807,262.482 134.5,263.5C 132.561,265.122 132.228,266.956 133.5,269C 130.878,270.913 129.878,273.246 130.5,276C 127.812,278.754 125.479,281.754 123.5,285C 121.866,285.494 120.199,285.66 118.5,285.5C 113.064,282.793 107.731,279.793 102.5,276.5C 105.765,277.307 108.932,277.307 112,276.5C 114.492,272.789 116.658,269.289 118.5,266C 118.167,265.667 117.833,265.333 117.5,265C 119.394,263.899 120.061,262.566 119.5,261C 122.321,259.379 122.987,257.212 121.5,254.5 Z"/></g>
<g><path style="opacity:1" fill="#2d7c93" d="M 203.5,251.5 C 206.361,251.513 207.361,252.679 206.5,255C 210.895,261.489 213.561,268.656 214.5,276.5C 207.532,281.322 200.199,285.656 192.5,289.5C 193.036,286.424 192.036,283.924 189.5,282C 190.108,279.816 189.441,277.816 187.5,276C 188.458,274.853 188.125,273.853 186.5,273C 186.833,272.667 187.167,272.333 187.5,272C 185.559,270.184 184.892,268.184 185.5,266C 184.975,265.308 184.308,264.808 183.5,264.5C 181.55,265.372 179.55,266.039 177.5,266.5C 185.832,260.998 194.499,255.998 203.5,251.5 Z"/></g>
<g><path style="opacity:1" fill="#2e7f97" d="M 37.5,257.5 C 38.1667,257.5 38.8333,257.5 39.5,257.5C 39.9731,258.906 40.9731,259.573 42.5,259.5C 43.8993,260.89 45.5659,261.89 47.5,262.5C 48.4916,262.328 49.1583,262.662 49.5,263.5C 50.1667,264.167 50.8333,264.833 51.5,265.5C 48.2517,272.052 45.085,278.719 42,285.5C 39.4476,288.734 36.281,289.4 32.5,287.5C 32.0269,286.094 31.0269,285.427 29.5,285.5C 27.847,285.34 26.5137,284.674 25.5,283.5C 25.0269,282.094 24.0269,281.427 22.5,281.5C 20.847,281.34 19.5137,280.674 18.5,279.5C 20.4008,279.433 22.2341,279.767 24,280.5C 27.8821,276.943 30.5488,272.61 32,267.5C 34.7123,264.657 36.5456,261.323 37.5,257.5 Z"/></g>
<g><path style="opacity:1" fill="#194c59" d="M 39.5,257.5 C 41.0269,257.427 42.0269,258.094 42.5,259.5C 40.9731,259.573 39.9731,258.906 39.5,257.5 Z"/></g>
<g><path style="opacity:1" fill="#123a45" d="M 42.5,259.5 C 44.9893,259.241 46.656,260.241 47.5,262.5C 45.5659,261.89 43.8993,260.89 42.5,259.5 Z"/></g>
<g><path style="opacity:1" fill="#205e6f" d="M 295.5,281.5 C 290.131,284.847 284.797,288.181 279.5,291.5C 277.716,291.893 276.05,292.559 274.5,293.5C 275.452,291.888 275.786,290.388 275.5,289C 273.559,287.184 272.892,285.184 273.5,283C 271.789,280.544 270.456,277.877 269.5,275C 269.833,274.667 270.167,274.333 270.5,274C 269.181,271.715 267.681,269.548 266,267.5C 264.644,268.38 263.144,268.714 261.5,268.5C 267.337,265.082 273.004,261.416 278.5,257.5C 279.833,257.167 281.167,256.833 282.5,256.5C 283.847,255.972 285.181,255.805 286.5,256C 287.833,258 289.167,260 290.5,262C 290.167,262.333 289.833,262.667 289.5,263C 291.167,266.667 292.833,270.333 294.5,274C 294.167,274.333 293.833,274.667 293.5,275C 294.669,277.007 295.335,279.173 295.5,281.5 Z"/></g>
<g><path style="opacity:1" fill="#071e23" d="M 249.5,80.5 C 259.449,85.8033 269.115,91.4699 278.5,97.5C 277.08,102.285 275.747,107.285 274.5,112.5C 275.779,117.321 276.446,122.321 276.5,127.5C 274.37,162.814 274.037,198.147 275.5,233.5C 275.852,241.875 276.852,249.875 278.5,257.5C 273.004,261.416 267.337,265.082 261.5,268.5C 256.5,270.664 251.833,273.331 247.5,276.5C 239.829,280.333 232.496,284.666 225.5,289.5C 218.004,292.745 211.004,296.745 204.5,301.5C 196.164,305.665 188.164,310.332 180.5,315.5C 177.669,316.079 175.336,317.412 173.5,319.5C 168.932,321.403 164.598,323.736 160.5,326.5C 157.5,325.167 154.5,323.833 151.5,322.5C 145.436,318.451 139.103,314.785 132.5,311.5C 125.386,307.774 118.386,303.774 111.5,299.5C 107.122,296.312 102.456,293.645 97.5,291.5C 94.0017,288.341 90.0017,286.008 85.5,284.5C 78.7891,280.151 71.7891,276.151 64.5,272.5C 60.2891,269.895 55.9558,267.562 51.5,265.5C 50.8333,264.833 50.1667,264.167 49.5,263.5C 55.1667,263.5 60.8333,263.5 66.5,263.5C 67.6335,275.303 68.3002,275.303 68.5,263.5C 71.7131,263.81 74.7131,263.477 77.5,262.5C 80.5498,264.692 83.8832,266.358 87.5,267.5C 91.9946,271.251 96.9946,274.251 102.5,276.5C 107.731,279.793 113.064,282.793 118.5,285.5C 131.507,294.499 145.174,302.166 159.5,308.5C 166.506,305 173.173,301 179.5,296.5C 184.068,294.597 188.402,292.264 192.5,289.5C 200.199,285.656 207.532,281.322 214.5,276.5C 220.738,273.596 226.738,270.262 232.5,266.5C 237.701,263.737 242.701,260.737 247.5,257.5C 251.173,256 254.506,254 257.5,251.5C 262.663,249.086 267.663,246.419 272.5,243.5C 273.499,199.67 273.832,155.67 273.5,111.5C 267.925,109.379 262.592,106.713 257.5,103.5C 253.113,100.469 248.446,97.8026 243.5,95.5C 236.332,91.4173 229.332,87.0839 222.5,82.5C 230.445,83.4368 238.445,83.7701 246.5,83.5C 247.167,99.5 247.833,99.5 248.5,83.5C 249.552,83.6495 250.552,83.4828 251.5,83C 250.244,82.5831 249.577,81.7498 249.5,80.5 Z"/></g>
<g><path style="opacity:1" fill="#30849c" d="M 192.5,289.5 C 188.402,292.264 184.068,294.597 179.5,296.5C 179.724,291.738 178.391,287.571 175.5,284C 175.833,283.667 176.167,283.333 176.5,283C 175.313,279.738 173.646,276.738 171.5,274C 172.654,273.086 172.487,272.253 171,271.5C 169.275,272.464 167.441,273.131 165.5,273.5C 168.976,270.377 172.976,268.043 177.5,266.5C 179.55,266.039 181.55,265.372 183.5,264.5C 184.308,264.808 184.975,265.308 185.5,266C 184.892,268.184 185.559,270.184 187.5,272C 187.167,272.333 186.833,272.667 186.5,273C 188.125,273.853 188.458,274.853 187.5,276C 189.441,277.816 190.108,279.816 189.5,282C 192.036,283.924 193.036,286.424 192.5,289.5 Z"/></g>
<g><path style="opacity:1" fill="#236477" d="M 274.5,293.5 C 270.966,295.766 267.3,297.766 263.5,299.5C 261.978,290.732 259.145,282.399 255,274.5C 254.5,275 254,275.5 253.5,276C 254.517,277.049 254.684,278.216 254,279.5C 252.956,278.377 252.29,277.044 252,275.5C 250.644,276.38 249.144,276.714 247.5,276.5C 251.833,273.331 256.5,270.664 261.5,268.5C 263.144,268.714 264.644,268.38 266,267.5C 267.681,269.548 269.181,271.715 270.5,274C 270.167,274.333 269.833,274.667 269.5,275C 270.456,277.877 271.789,280.544 273.5,283C 272.892,285.184 273.559,287.184 275.5,289C 275.786,290.388 275.452,291.888 274.5,293.5 Z"/></g>
<g><path style="opacity:1" fill="#2c7a90" d="M 51.5,265.5 C 55.9558,267.562 60.2891,269.895 64.5,272.5C 62.9304,274.851 62.0971,277.518 62,280.5C 61.6667,280.167 61.3333,279.833 61,279.5C 60.773,282.06 59.4397,283.726 57,284.5C 56.6667,286.5 56.3333,288.5 56,290.5C 55.6667,290.167 55.3333,289.833 55,289.5C 53.8477,291.914 52.181,293.914 50,295.5C 48.2341,294.767 46.4008,294.433 44.5,294.5C 40.7958,291.648 36.7958,289.315 32.5,287.5C 36.281,289.4 39.4476,288.734 42,285.5C 45.085,278.719 48.2517,272.052 51.5,265.5 Z"/></g>
<g><path style="opacity:1" fill="#1a4f5e" d="M 3.5,270.5 C 5.02694,270.427 6.02694,271.094 6.5,272.5C 4.97306,272.573 3.97306,271.906 3.5,270.5 Z"/></g>
<g><path style="opacity:1" fill="#338ba4" d="M 179.5,296.5 C 173.173,301 166.506,305 159.5,308.5C 159.334,298.161 159.5,287.828 160,277.5C 160.717,276.956 161.217,276.289 161.5,275.5C 162.514,274.326 163.847,273.66 165.5,273.5C 167.441,273.131 169.275,272.464 171,271.5C 172.487,272.253 172.654,273.086 171.5,274C 173.646,276.738 175.313,279.738 176.5,283C 176.167,283.333 175.833,283.667 175.5,284C 178.391,287.571 179.724,291.738 179.5,296.5 Z"/></g>
<g><path style="opacity:1" fill="#1f5b6b" d="M 132.5,260.5 C 136.618,262.063 140.284,264.396 143.5,267.5C 149.563,270.202 155.563,272.868 161.5,275.5C 161.217,276.289 160.717,276.956 160,277.5C 159.5,287.828 159.334,298.161 159.5,308.5C 145.174,302.166 131.507,294.499 118.5,285.5C 120.199,285.66 121.866,285.494 123.5,285C 125.479,281.754 127.812,278.754 130.5,276C 129.878,273.246 130.878,270.913 133.5,269C 132.228,266.956 132.561,265.122 134.5,263.5C 133.807,262.482 133.141,261.482 132.5,260.5 Z"/></g>
<g><path style="opacity:1" fill="#1b505f" d="M 10.5,274.5 C 12.0269,274.427 13.0269,275.094 13.5,276.5C 11.9731,276.573 10.9731,275.906 10.5,274.5 Z"/></g>
<g><path style="opacity:1" fill="#266c80" d="M 263.5,299.5 C 256.036,304.403 248.369,309.07 240.5,313.5C 238.69,304.403 235.69,295.736 231.5,287.5C 229.55,288.372 227.55,289.039 225.5,289.5C 232.496,284.666 239.829,280.333 247.5,276.5C 249.144,276.714 250.644,276.38 252,275.5C 252.29,277.044 252.956,278.377 254,279.5C 254.684,278.216 254.517,277.049 253.5,276C 254,275.5 254.5,275 255,274.5C 259.145,282.399 261.978,290.732 263.5,299.5 Z"/></g>
<g><path style="opacity:1" fill="#226173" d="M 13.5,276.5 C 15.9893,276.241 17.656,277.241 18.5,279.5C 16.5659,278.89 14.8993,277.89 13.5,276.5 Z"/></g>
<g><path style="opacity:1" fill="#092329" d="M 317.5,86.5 C 317.833,86.5 318.167,86.5 318.5,86.5C 318.5,154.833 318.5,223.167 318.5,291.5C 315.167,291.5 311.833,291.5 308.5,291.5C 307.833,271.5 307.167,271.5 306.5,291.5C 297.5,291.5 288.5,291.5 279.5,291.5C 284.797,288.181 290.131,284.847 295.5,281.5C 300.037,279.07 304.37,276.403 308.5,273.5C 310.98,272.758 313.313,271.758 315.5,270.5C 317.496,209.509 318.163,148.176 317.5,86.5 Z"/></g>
<g><path style="opacity:1" fill="#287186" d="M 64.5,272.5 C 71.7891,276.151 78.7891,280.151 85.5,284.5C 86.4731,286.068 86.6397,287.735 86,289.5C 82.012,294.441 78.6787,300.441 76,307.5C 74.5557,309.155 72.7224,309.822 70.5,309.5C 62.1185,304.144 53.4518,299.144 44.5,294.5C 46.4008,294.433 48.2341,294.767 50,295.5C 52.181,293.914 53.8477,291.914 55,289.5C 55.3333,289.833 55.6667,290.167 56,290.5C 56.3333,288.5 56.6667,286.5 57,284.5C 59.4397,283.726 60.773,282.06 61,279.5C 61.3333,279.833 61.6667,280.167 62,280.5C 62.0971,277.518 62.9304,274.851 64.5,272.5 Z"/></g>
<g><path style="opacity:1" fill="#194a58" d="M 22.5,281.5 C 24.0269,281.427 25.0269,282.094 25.5,283.5C 23.9731,283.573 22.9731,282.906 22.5,281.5 Z"/></g>
<g><path style="opacity:1" fill="#194b59" d="M 29.5,285.5 C 31.0269,285.427 32.0269,286.094 32.5,287.5C 30.9731,287.573 29.9731,286.906 29.5,285.5 Z"/></g>
<g><path style="opacity:1" fill="#256b7e" d="M 85.5,284.5 C 90.0017,286.008 94.0017,288.341 97.5,291.5C 98.0283,292.721 98.695,293.887 99.5,295C 98.1667,296.333 98.1667,297.667 99.5,299C 99.3106,301.295 97.9772,303.295 95.5,305C 95.8333,305.333 96.1667,305.667 96.5,306C 93.8333,309.333 91.1667,312.667 88.5,316C 88.8333,316.333 89.1667,316.667 89.5,317C 85.5586,315.932 81.5586,314.766 77.5,313.5C 75.1667,312.167 72.8333,310.833 70.5,309.5C 72.7224,309.822 74.5557,309.155 76,307.5C 78.6787,300.441 82.012,294.441 86,289.5C 86.6397,287.735 86.4731,286.068 85.5,284.5 Z"/></g>
<g><path style="opacity:1" fill="#2b788e" d="M 240.5,313.5 C 233.14,317.512 225.806,321.512 218.5,325.5C 218.343,320.534 217.009,316.367 214.5,313C 214.833,312.667 215.167,312.333 215.5,312C 213.29,308.051 211.457,303.884 210,299.5C 208.275,300.464 206.441,301.131 204.5,301.5C 211.004,296.745 218.004,292.745 225.5,289.5C 227.55,289.039 229.55,288.372 231.5,287.5C 235.69,295.736 238.69,304.403 240.5,313.5 Z"/></g>
<g><path style="opacity:1" fill="#236477" d="M 97.5,291.5 C 102.456,293.645 107.122,296.312 111.5,299.5C 112.089,301.352 112.756,303.185 113.5,305C 110.878,306.913 109.878,309.246 110.5,312C 107.028,316.719 103.861,321.219 101,325.5C 99.6439,324.62 98.1439,324.286 96.5,324.5C 90.5492,320.397 84.2159,316.73 77.5,313.5C 81.5586,314.766 85.5586,315.932 89.5,317C 89.1667,316.667 88.8333,316.333 88.5,316C 91.1667,312.667 93.8333,309.333 96.5,306C 96.1667,305.667 95.8333,305.333 95.5,305C 97.9772,303.295 99.3106,301.295 99.5,299C 98.1667,297.667 98.1667,296.333 99.5,295C 98.695,293.887 98.0283,292.721 97.5,291.5 Z"/></g>
<g><path style="opacity:1" fill="#2f829a" d="M 218.5,325.5 C 211.036,330.403 203.369,335.07 195.5,339.5C 195.662,337.473 195.495,335.473 195,333.5C 191.761,327.511 189.428,321.178 188,314.5C 187.586,314.043 187.086,313.709 186.5,313.5C 184.55,314.372 182.55,315.039 180.5,315.5C 188.164,310.332 196.164,305.665 204.5,301.5C 206.441,301.131 208.275,300.464 210,299.5C 211.457,303.884 213.29,308.051 215.5,312C 215.167,312.333 214.833,312.667 214.5,313C 217.009,316.367 218.343,320.534 218.5,325.5 Z"/></g>
<g><path style="opacity:1" fill="#205d6e" d="M 111.5,299.5 C 118.386,303.774 125.386,307.774 132.5,311.5C 133.706,312.88 133.373,314.047 131.5,315C 131.5,316.333 131.5,317.667 131.5,319C 129.443,320.719 127.776,322.719 126.5,325C 126.645,325.772 126.978,326.439 127.5,327C 124.21,329.614 121.71,332.781 120,336.5C 118.644,335.62 117.144,335.286 115.5,335.5C 108.935,332.276 102.601,328.609 96.5,324.5C 98.1439,324.286 99.6439,324.62 101,325.5C 103.861,321.219 107.028,316.719 110.5,312C 109.878,309.246 110.878,306.913 113.5,305C 112.756,303.185 112.089,301.352 111.5,299.5 Z"/></g>
<g><path style="opacity:1" fill="#328aa3" d="M 195.5,339.5 C 191.833,341.5 188.167,343.5 184.5,345.5C 184.663,343.143 184.497,340.81 184,338.5C 181.161,332.486 178.995,326.152 177.5,319.5C 176.167,319.5 174.833,319.5 173.5,319.5C 175.336,317.412 177.669,316.079 180.5,315.5C 182.55,315.039 184.55,314.372 186.5,313.5C 187.086,313.709 187.586,314.043 188,314.5C 189.428,321.178 191.761,327.511 195,333.5C 195.495,335.473 195.662,337.473 195.5,339.5 Z"/></g>
<g><path style="opacity:1" fill="#1d5565" d="M 132.5,311.5 C 139.103,314.785 145.436,318.451 151.5,322.5C 149.592,325.37 147.592,328.203 145.5,331C 145.833,331.333 146.167,331.667 146.5,332C 143.197,334.003 141.864,336.669 142.5,340C 140.077,341.571 138.744,343.737 138.5,346.5C 137.167,346.5 135.833,346.5 134.5,346.5C 128.096,343.025 121.763,339.358 115.5,335.5C 117.144,335.286 118.644,335.62 120,336.5C 121.71,332.781 124.21,329.614 127.5,327C 126.978,326.439 126.645,325.772 126.5,325C 127.776,322.719 129.443,320.719 131.5,319C 131.5,317.667 131.5,316.333 131.5,315C 133.373,314.047 133.706,312.88 132.5,311.5 Z"/></g>
<g><path style="opacity:1" fill="#3590ab" d="M 173.5,319.5 C 174.833,319.5 176.167,319.5 177.5,319.5C 178.995,326.152 181.161,332.486 184,338.5C 184.497,340.81 184.663,343.143 184.5,345.5C 181.291,347.265 178.291,349.265 175.5,351.5C 169.979,353.845 164.812,356.845 160,360.5C 159.601,360.272 159.435,359.938 159.5,359.5C 159.19,348.419 159.523,337.419 160.5,326.5C 164.598,323.736 168.932,321.403 173.5,319.5 Z"/></g>
<g><path style="opacity:1" fill="#061b20" d="M 318.5,291.5 C 318.5,315.5 318.5,339.5 318.5,363.5C 274.5,363.5 230.5,363.5 186.5,363.5C 186.5,360.167 186.5,356.833 186.5,353.5C 182.351,354.08 178.684,353.414 175.5,351.5C 178.291,349.265 181.291,347.265 184.5,345.5C 188.167,343.5 191.833,341.5 195.5,339.5C 203.369,335.07 211.036,330.403 218.5,325.5C 225.806,321.512 233.14,317.512 240.5,313.5C 248.369,309.07 256.036,304.403 263.5,299.5C 267.3,297.766 270.966,295.766 274.5,293.5C 276.05,292.559 277.716,291.893 279.5,291.5C 288.5,291.5 297.5,291.5 306.5,291.5C 307.167,271.5 307.833,271.5 308.5,291.5C 311.833,291.5 315.167,291.5 318.5,291.5 Z"/></g>
<g><path style="opacity:1" fill="#061b20" d="M 6.5,273.5 C 7.83333,273.833 9.16667,274.167 10.5,274.5C 10.9731,275.906 11.9731,276.573 13.5,276.5C 14.8993,277.89 16.5659,278.89 18.5,279.5C 19.5137,280.674 20.847,281.34 22.5,281.5C 22.9731,282.906 23.9731,283.573 25.5,283.5C 26.5137,284.674 27.847,285.34 29.5,285.5C 29.9731,286.906 30.9731,287.573 32.5,287.5C 36.7958,289.315 40.7958,291.648 44.5,294.5C 53.4518,299.144 62.1185,304.144 70.5,309.5C 72.8333,310.833 75.1667,312.167 77.5,313.5C 84.2159,316.73 90.5492,320.397 96.5,324.5C 102.601,328.609 108.935,332.276 115.5,335.5C 121.763,339.358 128.096,343.025 134.5,346.5C 142.139,352.132 150.473,356.466 159.5,359.5C 159.435,359.938 159.601,360.272 160,360.5C 164.812,356.845 169.979,353.845 175.5,351.5C 178.684,353.414 182.351,354.08 186.5,353.5C 186.5,356.833 186.5,360.167 186.5,363.5C 124.167,363.5 61.8333,363.5 -0.5,363.5C -0.5,339.5 -0.5,315.5 -0.5,291.5C 1.83333,291.5 4.16667,291.5 6.5,291.5C 6.5,285.5 6.5,279.5 6.5,273.5 Z"/></g>
<g><path style="opacity:1" fill="#1a4f5d" d="M 151.5,322.5 C 154.5,323.833 157.5,325.167 160.5,326.5C 159.523,337.419 159.19,348.419 159.5,359.5C 150.473,356.466 142.139,352.132 134.5,346.5C 135.833,346.5 137.167,346.5 138.5,346.5C 138.744,343.737 140.077,341.571 142.5,340C 141.864,336.669 143.197,334.003 146.5,332C 146.167,331.667 145.833,331.333 145.5,331C 147.592,328.203 149.592,325.37 151.5,322.5 Z"/></g>
</svg>
